<svg width="145" height="25" viewBox="0 0 145 25" fill="none" xmlns="http://www.w3.org/2000/svg">
<path fill-rule="evenodd" clip-rule="evenodd" d="M18.292 20.65C18.218 21.136 17.794 21.5 17.292 21.5H17.28H7V11.712L10.608 3.594C11.415 3.852 12 4.608 12 5.5V9.5C12 10.052 12.447 10.5 13 10.5H18.674C18.728 10.502 18.78 10.503 18.832 10.511C19.097 10.551 19.33 10.692 19.488 10.907C19.646 11.122 19.712 11.385 19.672 11.648L18.292 20.65ZM5 21.5H3C2.449 21.5 2 21.051 2 20.5V13.5C2 12.948 2.449 12.5 3 12.5H5V21.5ZM21.099 9.72C20.623 9.075 19.925 8.654 19.132 8.533C18.972 8.509 18.814 8.504 18.66 8.5H14V5.5C14 3.294 12.206 1.5 10 1.5C9.605 1.5 9.247 1.733 9.086 2.093L5.35 10.5H3C1.346 10.5 0 11.845 0 13.5V20.5C0 22.154 1.346 23.5 3 23.5H17.269H17.304C18.776 23.5 20.048 22.409 20.269 20.951L21.648 11.95C21.77 11.157 21.574 10.366 21.099 9.72Z" fill="#313037"/>
<path d="M37.5556 18.5H30.6276V16.628L34.8836 11.684C35.2783 11.2147 35.4756 10.756 35.4756 10.308C35.4756 9.88133 35.3529 9.54 35.1076 9.284C34.8729 9.01733 34.5369 8.884 34.0996 8.884C33.7049 8.884 33.3743 9.00133 33.1076 9.236C32.8409 9.46 32.7076 9.828 32.7076 10.34H30.6276C30.6276 9.32667 30.9529 8.52133 31.6036 7.924C32.2649 7.316 33.0969 7.012 34.0996 7.012C35.1236 7.012 35.9556 7.31067 36.5956 7.908C37.2356 8.50533 37.5556 9.31067 37.5556 10.324C37.5556 10.836 37.4649 11.268 37.2836 11.62C37.1023 11.972 36.7876 12.4093 36.3396 12.932L33.1556 16.628H37.5556V18.5ZM46.1791 15.204C46.1791 16.2493 45.8431 17.076 45.1711 17.684C44.5098 18.292 43.6938 18.596 42.7231 18.596C41.7524 18.596 40.9311 18.292 40.2591 17.684C39.5871 17.076 39.2511 16.2493 39.2511 15.204V10.404C39.2511 9.35867 39.5871 8.532 40.2591 7.924C40.9311 7.316 41.7524 7.012 42.7231 7.012C43.6938 7.012 44.5098 7.316 45.1711 7.924C45.8431 8.532 46.1791 9.35867 46.1791 10.404V15.204ZM44.0991 15.188V10.436C44.0991 9.956 43.9711 9.57733 43.7151 9.3C43.4698 9.02267 43.1391 8.884 42.7231 8.884C42.3071 8.884 41.9711 9.02267 41.7151 9.3C41.4591 9.57733 41.3311 9.956 41.3311 10.436V15.188C41.3311 15.668 41.4591 16.0467 41.7151 16.324C41.9711 16.5907 42.3071 16.724 42.7231 16.724C43.1391 16.724 43.4698 16.5907 43.7151 16.324C43.9711 16.0467 44.0991 15.668 44.0991 15.188Z" fill="#313037"/>
<path fill-rule="evenodd" clip-rule="evenodd" d="M93.3665 11.424C93.2535 12.052 92.6965 12.513 92.0365 12.501H90.3665V3.501H92.0545C92.6965 3.452 93.2525 3.948 93.3665 4.577V11.424ZM88.3665 13.288L84.7585 21.406C83.9515 21.148 83.3665 20.391 83.3665 19.501V15.501C83.3665 14.948 82.9185 14.501 82.3665 14.501H76.6975C76.6515 14.498 76.5905 14.499 76.5335 14.49C75.9885 14.407 75.6125 13.896 75.6945 13.352L77.0755 4.351C77.1495 3.861 77.6015 3.522 78.0865 3.501H88.3665V13.288ZM95.3575 4.366C95.1355 2.723 93.7305 1.5 92.0945 1.5C92.0755 1.5 92.0555 1.5 92.0365 1.501H78.0975C76.6105 1.511 75.3205 2.581 75.0985 4.049L73.7175 13.051C73.4705 14.686 74.5985 16.218 76.2305 16.466C76.3905 16.491 76.5535 16.503 76.7065 16.501H81.3665V19.501C81.3665 21.707 83.1605 23.501 85.3665 23.501C85.7625 23.501 86.1195 23.268 86.2805 22.907L90.0155 14.501H92.0185C93.6885 14.506 95.1325 13.298 95.3575 11.635C95.3635 11.591 95.3665 11.546 95.3665 11.501V4.501C95.3665 4.456 95.3635 4.411 95.3575 4.366Z" fill="#313037"/>
</svg>
