<svg width="69" height="24" viewBox="0 0 69 24" fill="none" xmlns="http://www.w3.org/2000/svg">
<path d="M10.7102 6.36364V18H8.83523L3.35227 10.0739H3.25568V18H1.14773V6.36364H3.03409L8.51136 14.2955H8.61364V6.36364H10.7102ZM16.7798 18.1705C15.9048 18.1705 15.1491 17.9886 14.5128 17.625C13.8802 17.2576 13.3935 16.7386 13.0526 16.0682C12.7116 15.3939 12.5412 14.6004 12.5412 13.6875C12.5412 12.7898 12.7116 12.0019 13.0526 11.3239C13.3973 10.642 13.8783 10.1117 14.4957 9.73295C15.1132 9.35038 15.8385 9.15909 16.6719 9.15909C17.2098 9.15909 17.7173 9.24621 18.1946 9.42045C18.6757 9.59091 19.0999 9.85606 19.4673 10.2159C19.8385 10.5758 20.1302 11.0341 20.3423 11.5909C20.5545 12.1439 20.6605 12.803 20.6605 13.5682V14.1989H13.5071V12.8125H18.6889C18.6851 12.4186 18.5999 12.0682 18.4332 11.7614C18.2666 11.4508 18.0336 11.2064 17.7344 11.0284C17.4389 10.8504 17.0942 10.7614 16.7003 10.7614C16.2798 10.7614 15.9105 10.8636 15.5923 11.0682C15.2741 11.2689 15.026 11.5341 14.848 11.8636C14.6738 12.1894 14.5848 12.5473 14.581 12.9375V14.1477C14.581 14.6553 14.6738 15.0909 14.8594 15.4545C15.045 15.8144 15.3045 16.0909 15.6378 16.2841C15.9711 16.4735 16.3613 16.5682 16.8082 16.5682C17.1075 16.5682 17.3783 16.5265 17.6207 16.4432C17.8632 16.3561 18.0734 16.2292 18.2514 16.0625C18.4295 15.8958 18.5639 15.6894 18.6548 15.4432L20.5753 15.6591C20.4541 16.1667 20.223 16.6098 19.8821 16.9886C19.545 17.3636 19.1132 17.6553 18.5866 17.8636C18.0601 18.0682 17.4579 18.1705 16.7798 18.1705ZM23.8949 9.27273L25.6562 12.4943L27.446 9.27273H29.6222L26.9915 13.6364L29.6676 18H27.5028L25.6562 14.858L23.8267 18H21.6449L24.304 13.6364L21.7131 9.27273H23.8949ZM35.571 9.27273V10.8636H30.554V9.27273H35.571ZM31.7926 7.18182H33.8494V15.375C33.8494 15.6515 33.8911 15.8636 33.9744 16.0114C34.0616 16.1553 34.1752 16.2538 34.3153 16.3068C34.4555 16.3598 34.6108 16.3864 34.7812 16.3864C34.91 16.3864 35.0275 16.3769 35.1335 16.358C35.2434 16.339 35.3267 16.322 35.3835 16.3068L35.7301 17.9148C35.6203 17.9527 35.4631 17.9943 35.2585 18.0398C35.0578 18.0852 34.8116 18.1117 34.5199 18.1193C34.0047 18.1345 33.5407 18.0568 33.1278 17.8864C32.715 17.7121 32.3873 17.4432 32.1449 17.0795C31.9063 16.7159 31.7888 16.2614 31.7926 15.7159V7.18182Z" fill="#313037"/>
<path fill-rule="evenodd" clip-rule="evenodd" d="M58.2905 18.7076C58.1005 18.5076 58.0005 18.2576 58.0005 17.9976C58.0005 17.7376 58.1005 17.4876 58.2905 17.2876L62.5905 12.9976L49.0005 12.9976C48.4505 12.9976 48.0005 12.5476 48.0005 11.9976C48.0005 11.4476 48.4505 10.9976 49.0005 10.9976L62.5905 10.9976L58.2905 6.70762C57.9005 6.31762 57.9005 5.67762 58.2905 5.28762C58.6805 4.89762 59.3205 4.89762 59.7105 5.28762L65.7105 11.2876C65.8005 11.3776 65.8705 11.4876 65.9205 11.6076C65.9405 11.6576 65.9605 11.6976 65.9605 11.7476C66.0105 11.9076 66.0105 12.0876 65.9605 12.2476C65.9605 12.2976 65.9405 12.3376 65.9205 12.3876C65.8705 12.5076 65.8005 12.6176 65.7105 12.7076L59.7105 18.7076C59.3205 19.0976 58.6805 19.0976 58.2905 18.7076Z" fill="#313037"/>
</svg>
