<svg width="67" height="24" viewBox="0 0 67 24" fill="none" xmlns="http://www.w3.org/2000/svg">
<path fill-rule="evenodd" clip-rule="evenodd" d="M10.7095 5.29238C10.8995 5.49238 10.9995 5.74238 10.9995 6.00238C10.9995 6.26238 10.8995 6.51238 10.7095 6.71238L6.40945 11.0024L19.9995 11.0024C20.5495 11.0024 20.9995 11.4524 20.9995 12.0024C20.9995 12.5524 20.5495 13.0024 19.9995 13.0024L6.40945 13.0024L10.7095 17.2924C11.0995 17.6824 11.0995 18.3224 10.7095 18.7124C10.3195 19.1024 9.67945 19.1024 9.28945 18.7124L3.28945 12.7124C3.19945 12.6224 3.12945 12.5124 3.07945 12.3924C3.05945 12.3424 3.03945 12.3024 3.03945 12.2524C2.98945 12.0924 2.98945 11.9124 3.03945 11.7524C3.03945 11.7024 3.05945 11.6624 3.07945 11.6124C3.12945 11.4924 3.19945 11.3824 3.28945 11.2924L9.28945 5.29238C9.67945 4.90238 10.3195 4.90238 10.7095 5.29238Z" fill="#313037"/>
<path d="M33.1477 18V6.36364H37.5114C38.4053 6.36364 39.1553 6.5303 39.7614 6.86364C40.3712 7.19697 40.8314 7.6553 41.142 8.23864C41.4564 8.81818 41.6136 9.47727 41.6136 10.2159C41.6136 10.9621 41.4564 11.625 41.142 12.2045C40.8277 12.7841 40.3636 13.2405 39.75 13.5739C39.1364 13.9034 38.3807 14.0682 37.483 14.0682H34.5909V12.3352H37.1989C37.7216 12.3352 38.1496 12.2443 38.483 12.0625C38.8163 11.8807 39.0625 11.6307 39.2216 11.3125C39.3845 10.9943 39.4659 10.6288 39.4659 10.2159C39.4659 9.80303 39.3845 9.43939 39.2216 9.125C39.0625 8.81061 38.8144 8.56629 38.4773 8.39205C38.1439 8.21402 37.714 8.125 37.1875 8.125H35.2557V18H33.1477ZM43.3537 18V9.27273H45.348V10.7273H45.4389C45.598 10.2235 45.8707 9.83523 46.2571 9.5625C46.6473 9.28598 47.0923 9.14773 47.5923 9.14773C47.706 9.14773 47.8329 9.15341 47.973 9.16477C48.117 9.17235 48.2363 9.18561 48.331 9.20455V11.0966C48.2438 11.0663 48.1056 11.0398 47.9162 11.017C47.7306 10.9905 47.5507 10.9773 47.3764 10.9773C47.0014 10.9773 46.6643 11.0587 46.3651 11.2216C46.0696 11.3807 45.8366 11.6023 45.6662 11.8864C45.4957 12.1705 45.4105 12.4981 45.4105 12.8693V18H43.3537ZM53.2017 18.1705C52.3267 18.1705 51.571 17.9886 50.9347 17.625C50.3021 17.2576 49.8153 16.7386 49.4744 16.0682C49.1335 15.3939 48.9631 14.6004 48.9631 13.6875C48.9631 12.7898 49.1335 12.0019 49.4744 11.3239C49.8191 10.642 50.3002 10.1117 50.9176 9.73295C51.535 9.35038 52.2604 9.15909 53.0938 9.15909C53.6316 9.15909 54.1392 9.24621 54.6165 9.42045C55.0975 9.59091 55.5218 9.85606 55.8892 10.2159C56.2604 10.5758 56.5521 11.0341 56.7642 11.5909C56.9763 12.1439 57.0824 12.803 57.0824 13.5682V14.1989H49.929V12.8125H55.1108C55.107 12.4186 55.0218 12.0682 54.8551 11.7614C54.6884 11.4508 54.4555 11.2064 54.1562 11.0284C53.8608 10.8504 53.5161 10.7614 53.1222 10.7614C52.7017 10.7614 52.3324 10.8636 52.0142 11.0682C51.696 11.2689 51.4479 11.5341 51.2699 11.8636C51.0956 12.1894 51.0066 12.5473 51.0028 12.9375V14.1477C51.0028 14.6553 51.0956 15.0909 51.2812 15.4545C51.4669 15.8144 51.7263 16.0909 52.0597 16.2841C52.393 16.4735 52.7831 16.5682 53.2301 16.5682C53.5294 16.5682 53.8002 16.5265 54.0426 16.4432C54.285 16.3561 54.4953 16.2292 54.6733 16.0625C54.8513 15.8958 54.9858 15.6894 55.0767 15.4432L56.9972 15.6591C56.8759 16.1667 56.6449 16.6098 56.304 16.9886C55.9669 17.3636 55.535 17.6553 55.0085 17.8636C54.482 18.0682 53.8797 18.1705 53.2017 18.1705ZM66.3679 9.27273L63.2599 18H60.9872L57.8793 9.27273H60.0724L62.0781 15.7557H62.169L64.1804 9.27273H66.3679Z" fill="#313037"/>
</svg>
