<svg width="72" height="24" viewBox="0 0 72 24" fill="none" xmlns="http://www.w3.org/2000/svg">
<path fill-rule="evenodd" clip-rule="evenodd" d="M12 15C12.204 15 12.407 15.062 12.581 15.187L18 19.057V5C18 4.449 17.552 4 17 4H7C6.449 4 6 4.449 6 5V19.057L11.419 15.187C11.593 15.062 11.796 15 12 15ZM19 22C18.795 22 18.592 21.937 18.419 21.813L12 17.229L5.581 21.813C5.277 22.032 4.875 22.062 4.542 21.89C4.209 21.718 4 21.375 4 21V5C4 3.346 5.346 2 7 2H17C18.654 2 20 3.346 20 5V21C20 21.375 19.791 21.718 19.458 21.89C19.313 21.963 19.156 22 19 22Z" fill="#313037"/>
<path fill-rule="evenodd" clip-rule="evenodd" d="M50 12C50 13.1027 50.8973 14 52 14C53.1027 14 54 13.1027 54 12C54 10.8973 53.1027 10 52 10C50.8973 10 50 10.8973 50 12ZM60 14C58.8973 14 58 13.1027 58 12C58 10.8973 58.8973 10 60 10C61.1027 10 62 10.8973 62 12C62 13.1027 61.1027 14 60 14ZM68 14C66.8973 14 66 13.1027 66 12C66 10.8973 66.8973 10 68 10C69.1027 10 70 10.8973 70 12C70 13.1027 69.1027 14 68 14Z" fill="#313037"/>
</svg>
