<svg width="182" height="56" viewBox="0 0 182 56" fill="none" xmlns="http://www.w3.org/2000/svg">
<rect width="88" height="56" rx="2" fill="#E8E8E8"/>
<path fill-rule="evenodd" clip-rule="evenodd" d="M51.292 36.15C51.218 36.636 50.794 37 50.292 37H50.28H40V27.212L43.608 19.094C44.415 19.352 45 20.108 45 21V25C45 25.552 45.447 26 46 26H51.674C51.728 26.002 51.78 26.003 51.832 26.011C52.097 26.051 52.33 26.192 52.488 26.407C52.646 26.622 52.712 26.885 52.672 27.148L51.292 36.15ZM38 37H36C35.449 37 35 36.551 35 36V29C35 28.448 35.449 28 36 28H38V37ZM54.099 25.22C53.623 24.575 52.925 24.154 52.132 24.033C51.972 24.009 51.814 24.004 51.66 24H47V21C47 18.794 45.206 17 43 17C42.605 17 42.247 17.233 42.086 17.593L38.35 26H36C34.346 26 33 27.345 33 29V36C33 37.654 34.346 39 36 39H50.269H50.304C51.776 39 53.048 37.909 53.269 36.451L54.648 27.45C54.77 26.657 54.574 25.866 54.099 25.22Z" fill="#313037"/>
<rect x="94" width="88" height="56" rx="2" fill="#E8E8E8"/>
<path fill-rule="evenodd" clip-rule="evenodd" d="M146.683 26.9239C146.57 27.5519 146.013 28.0129 145.353 28.0009H143.683V19.0009H145.371C146.013 18.9519 146.569 19.4479 146.683 20.0769V26.9239ZM141.683 28.7879L138.075 36.9059C137.268 36.6479 136.683 35.8909 136.683 35.0009V31.0009C136.683 30.4479 136.235 30.0009 135.683 30.0009H130.014C129.968 29.9979 129.907 29.9989 129.85 29.9899C129.305 29.9069 128.929 29.3959 129.011 28.8519L130.392 19.8509C130.466 19.3609 130.918 19.0219 131.403 19.0009H141.683V28.7879ZM148.674 19.8659C148.452 18.2229 147.047 16.9999 145.411 16.9999C145.392 16.9999 145.372 16.9999 145.353 17.0009H131.414C129.927 17.0109 128.637 18.0809 128.415 19.5489L127.034 28.5509C126.787 30.1859 127.915 31.7179 129.547 31.9659C129.707 31.9909 129.87 32.0029 130.023 32.0009H134.683V35.0009C134.683 37.2069 136.477 39.0009 138.683 39.0009C139.079 39.0009 139.436 38.7679 139.597 38.4069L143.332 30.0009H145.335C147.005 30.0059 148.449 28.7979 148.674 27.1349C148.68 27.0909 148.683 27.0459 148.683 27.0009V20.0009C148.683 19.9559 148.68 19.9109 148.674 19.8659Z" fill="#313037"/>
</svg>
