<svg width="453" height="56" viewBox="0 0 453 56" fill="none" xmlns="http://www.w3.org/2000/svg">
<path d="M385.202 6.36364V18H383.588L377.673 9.46591H377.565V18H375.81V6.36364H377.435L383.355 14.9091H383.463V6.36364H385.202ZM391.388 18.1761C390.528 18.1761 389.787 17.9924 389.166 17.625C388.549 17.2538 388.071 16.733 387.734 16.0625C387.401 15.3883 387.234 14.5985 387.234 13.6932C387.234 12.7992 387.401 12.0114 387.734 11.3295C388.071 10.6477 388.541 10.1155 389.143 9.73295C389.75 9.35038 390.458 9.15909 391.268 9.15909C391.761 9.15909 392.238 9.24053 392.7 9.40341C393.162 9.56629 393.577 9.82197 393.945 10.1705C394.312 10.5189 394.602 10.9716 394.814 11.5284C395.026 12.0814 395.132 12.7538 395.132 13.5455V14.1477H388.195V12.875H393.467C393.467 12.428 393.376 12.0322 393.195 11.6875C393.013 11.339 392.757 11.0644 392.428 10.8636C392.102 10.6629 391.719 10.5625 391.28 10.5625C390.803 10.5625 390.386 10.6799 390.03 10.9148C389.678 11.1458 389.405 11.4489 389.212 11.8239C389.022 12.1951 388.928 12.5985 388.928 13.0341V14.0284C388.928 14.6117 389.03 15.108 389.234 15.517C389.443 15.9261 389.732 16.2386 390.104 16.4545C390.475 16.6667 390.909 16.7727 391.405 16.7727C391.727 16.7727 392.02 16.7273 392.286 16.6364C392.551 16.5417 392.78 16.4015 392.973 16.2159C393.166 16.0303 393.314 15.8011 393.416 15.5284L395.024 15.8182C394.895 16.2917 394.664 16.7064 394.331 17.0625C394.001 17.4148 393.587 17.6894 393.087 17.8864C392.59 18.0795 392.024 18.1761 391.388 18.1761ZM398.155 9.27273L400.081 12.6705L402.024 9.27273H403.882L401.161 13.6364L403.905 18H402.047L400.081 14.7386L398.121 18H396.257L398.973 13.6364L396.291 9.27273H398.155ZM409.7 9.27273V10.6364H404.933V9.27273H409.7ZM406.212 7.18182H407.911V15.4375C407.911 15.767 407.96 16.0152 408.058 16.1818C408.157 16.3447 408.284 16.4564 408.439 16.517C408.598 16.5739 408.77 16.6023 408.956 16.6023C409.092 16.6023 409.212 16.5928 409.314 16.5739C409.416 16.5549 409.496 16.5398 409.553 16.5284L409.859 17.9318C409.761 17.9697 409.621 18.0076 409.439 18.0455C409.257 18.0871 409.03 18.1098 408.757 18.1136C408.31 18.1212 407.893 18.0417 407.507 17.875C407.121 17.7083 406.808 17.4508 406.57 17.1023C406.331 16.7538 406.212 16.3163 406.212 15.7898V7.18182Z" fill="#313037"/>
<path d="M5.46307 50.1591C4.68277 50.1591 3.99337 50.0208 3.39489 49.7443C2.80019 49.464 2.33617 49.0795 2.00284 48.5909C1.66951 48.0985 1.50473 47.5379 1.50852 46.9091C1.50473 46.4167 1.60133 45.9621 1.7983 45.5455C1.99527 45.125 2.2642 44.7746 2.60511 44.4943C2.94981 44.2102 3.33428 44.0303 3.75852 43.9545V43.8864C3.2017 43.7424 2.75852 43.4299 2.42898 42.9489C2.09943 42.464 1.93655 41.9129 1.94034 41.2955C1.93655 40.7045 2.08617 40.1761 2.3892 39.7102C2.69223 39.2443 3.1089 38.8769 3.6392 38.608C4.1733 38.339 4.78125 38.2045 5.46307 38.2045C6.13731 38.2045 6.73958 38.339 7.26989 38.608C7.80019 38.8769 8.21686 39.2443 8.51989 39.7102C8.8267 40.1761 8.98201 40.7045 8.9858 41.2955C8.98201 41.9129 8.81345 42.464 8.48011 42.9489C8.15057 43.4299 7.71307 43.7424 7.16761 43.8864V43.9545C7.58807 44.0303 7.96686 44.2102 8.30398 44.4943C8.6411 44.7746 8.91004 45.125 9.1108 45.5455C9.31155 45.9621 9.41383 46.4167 9.41761 46.9091C9.41383 47.5379 9.24337 48.0985 8.90625 48.5909C8.57292 49.0795 8.1089 49.464 7.5142 49.7443C6.9233 50.0208 6.23958 50.1591 5.46307 50.1591ZM5.46307 48.9091C5.98958 48.9091 6.44413 48.8239 6.8267 48.6534C7.20928 48.483 7.50474 48.2424 7.71307 47.9318C7.9214 47.6212 8.02746 47.2576 8.03125 46.8409C8.02746 46.4015 7.91383 46.0133 7.69034 45.6761C7.46686 45.339 7.16193 45.0739 6.77557 44.8807C6.39299 44.6875 5.95549 44.5909 5.46307 44.5909C4.96686 44.5909 4.52367 44.6875 4.13352 44.8807C3.74716 45.0739 3.44223 45.339 3.21875 45.6761C2.99905 46.0133 2.8911 46.4015 2.89489 46.8409C2.8911 47.2576 2.99148 47.6212 3.19602 47.9318C3.40436 48.2424 3.7017 48.483 4.08807 48.6534C4.47443 48.8239 4.93277 48.9091 5.46307 48.9091ZM5.46307 43.3864C5.87974 43.3864 6.24905 43.303 6.57102 43.1364C6.89678 42.9697 7.15246 42.7367 7.33807 42.4375C7.52367 42.1383 7.61837 41.7879 7.62216 41.3864C7.61837 40.9924 7.52557 40.6496 7.34375 40.358C7.16193 40.0625 6.91004 39.8352 6.58807 39.6761C6.2661 39.5133 5.8911 39.4318 5.46307 39.4318C5.02746 39.4318 4.64678 39.5133 4.32102 39.6761C3.99527 39.8352 3.74337 40.0625 3.56534 40.358C3.38731 40.6496 3.30019 40.9924 3.30398 41.3864C3.30019 41.7879 3.3892 42.1383 3.57102 42.4375C3.75663 42.7367 4.01231 42.9697 4.33807 43.1364C4.66383 43.303 5.03883 43.3864 5.46307 43.3864ZM16.2997 50V38.3636H20.3679C21.1785 38.3636 21.8471 38.5038 22.3736 38.7841C22.9001 39.0606 23.2921 39.4337 23.5497 39.9034C23.8073 40.3693 23.9361 40.8864 23.9361 41.4545C23.9361 41.9545 23.8471 42.3674 23.669 42.6932C23.4948 43.0189 23.2637 43.2765 22.9759 43.4659C22.6918 43.6553 22.383 43.7955 22.0497 43.8864V44C22.4058 44.0227 22.7637 44.1477 23.1236 44.375C23.4834 44.6023 23.7846 44.928 24.027 45.3523C24.2694 45.7765 24.3906 46.2955 24.3906 46.9091C24.3906 47.4924 24.258 48.017 23.9929 48.483C23.7277 48.9489 23.3092 49.3182 22.7372 49.5909C22.1652 49.8636 21.4209 50 20.5043 50H16.2997ZM17.7088 48.75H20.5043C21.4247 48.75 22.0781 48.572 22.4645 48.2159C22.8546 47.8561 23.0497 47.4205 23.0497 46.9091C23.0497 46.5152 22.9493 46.1515 22.7486 45.8182C22.5478 45.4811 22.2618 45.2121 21.8906 45.0114C21.5194 44.8068 21.08 44.7045 20.5724 44.7045H17.7088V48.75ZM17.7088 43.4773H20.3224C20.7467 43.4773 21.1293 43.3939 21.4702 43.2273C21.8149 43.0606 22.0876 42.8258 22.2884 42.5227C22.4929 42.2197 22.5952 41.8636 22.5952 41.4545C22.5952 40.9432 22.4171 40.5095 22.0611 40.1534C21.705 39.7936 21.1406 39.6136 20.3679 39.6136H17.7088V43.4773ZM30.1832 50.1818C29.3423 50.1818 28.617 49.9962 28.0071 49.625C27.401 49.25 26.9332 48.7273 26.6037 48.0568C26.2779 47.3826 26.1151 46.5985 26.1151 45.7045C26.1151 44.8106 26.2779 44.0227 26.6037 43.3409C26.9332 42.6553 27.3916 42.1212 27.9787 41.7386C28.5696 41.3523 29.259 41.1591 30.0469 41.1591C30.5014 41.1591 30.9503 41.2348 31.3935 41.3864C31.8366 41.5379 32.2401 41.7841 32.6037 42.125C32.9673 42.4621 33.2571 42.9091 33.473 43.4659C33.6889 44.0227 33.7969 44.7083 33.7969 45.5227V46.0909H27.0696V44.9318H32.4332C32.4332 44.4394 32.3348 44 32.1378 43.6136C31.9446 43.2273 31.6681 42.9223 31.3082 42.6989C30.9522 42.4754 30.5317 42.3636 30.0469 42.3636C29.5128 42.3636 29.0507 42.4962 28.6605 42.7614C28.2741 43.0227 27.9768 43.3636 27.7685 43.7841C27.5601 44.2045 27.456 44.6553 27.456 45.1364V45.9091C27.456 46.5682 27.5696 47.1269 27.7969 47.5852C28.0279 48.0398 28.348 48.3864 28.7571 48.625C29.1662 48.8598 29.6416 48.9773 30.1832 48.9773C30.5355 48.9773 30.8537 48.928 31.1378 48.8295C31.4257 48.7273 31.6738 48.5758 31.8821 48.375C32.0904 48.1705 32.2514 47.9167 32.3651 47.6136L33.6605 47.9773C33.5241 48.4167 33.295 48.803 32.973 49.1364C32.651 49.4659 32.2533 49.7235 31.7798 49.9091C31.3063 50.0909 30.7741 50.1818 30.1832 50.1818ZM38.4048 50.2045C37.8518 50.2045 37.3499 50.1004 36.8991 49.892C36.4484 49.6799 36.0904 49.375 35.8253 48.9773C35.5601 48.5758 35.4276 48.0909 35.4276 47.5227C35.4276 47.0227 35.526 46.6174 35.723 46.3068C35.92 45.9924 36.1832 45.7462 36.5128 45.5682C36.8423 45.3902 37.206 45.2576 37.6037 45.1705C38.0052 45.0795 38.4086 45.0076 38.8139 44.9545C39.3442 44.8864 39.7741 44.8352 40.1037 44.8011C40.437 44.7633 40.6795 44.7008 40.831 44.6136C40.9863 44.5265 41.0639 44.375 41.0639 44.1591V44.1136C41.0639 43.553 40.9105 43.1174 40.6037 42.8068C40.3007 42.4962 39.8404 42.3409 39.223 42.3409C38.5829 42.3409 38.081 42.4811 37.7173 42.7614C37.3537 43.0417 37.098 43.3409 36.9503 43.6591L35.6776 43.2045C35.9048 42.6742 36.2079 42.2614 36.5866 41.9659C36.9692 41.6667 37.3859 41.4583 37.8366 41.3409C38.2912 41.2197 38.7382 41.1591 39.1776 41.1591C39.4579 41.1591 39.7798 41.1932 40.1435 41.2614C40.5109 41.3258 40.8651 41.4602 41.206 41.6648C41.5507 41.8693 41.8366 42.178 42.0639 42.5909C42.2912 43.0038 42.4048 43.5568 42.4048 44.25V50H41.0639V48.8182H40.9957C40.9048 49.0076 40.7533 49.2102 40.5412 49.4261C40.3291 49.642 40.0469 49.8258 39.6946 49.9773C39.3423 50.1288 38.9124 50.2045 38.4048 50.2045ZM38.6094 49C39.1397 49 39.5866 48.8958 39.9503 48.6875C40.3177 48.4792 40.5942 48.2102 40.7798 47.8807C40.9692 47.5511 41.0639 47.2045 41.0639 46.8409V45.6136C41.0071 45.6818 40.8821 45.7443 40.6889 45.8011C40.4995 45.8542 40.2798 45.9015 40.0298 45.9432C39.7836 45.9811 39.5431 46.0152 39.3082 46.0455C39.0772 46.072 38.8897 46.0947 38.7457 46.1136C38.3973 46.1591 38.0715 46.233 37.7685 46.3352C37.4692 46.4337 37.2268 46.5833 37.0412 46.7841C36.8594 46.9811 36.7685 47.25 36.7685 47.5909C36.7685 48.0568 36.9408 48.4091 37.2855 48.6477C37.634 48.8826 38.0753 49 38.6094 49ZM50.3523 46.4318V41.2727H51.6932V50H50.3523V48.5227H50.2614C50.0568 48.9659 49.7386 49.3428 49.3068 49.6534C48.875 49.9602 48.3295 50.1136 47.6705 50.1136C47.125 50.1136 46.6402 49.9943 46.2159 49.7557C45.7917 49.5133 45.4583 49.1496 45.2159 48.6648C44.9735 48.1761 44.8523 47.5606 44.8523 46.8182V41.2727H46.1932V46.7273C46.1932 47.3636 46.3712 47.8712 46.7273 48.25C47.0871 48.6288 47.5455 48.8182 48.1023 48.8182C48.4356 48.8182 48.7746 48.733 49.1193 48.5625C49.4678 48.392 49.7595 48.1307 49.9943 47.7784C50.233 47.4261 50.3523 46.9773 50.3523 46.4318ZM57.9446 41.2727V42.4091H53.4219V41.2727H57.9446ZM54.7401 39.1818H56.081V47.5C56.081 47.8788 56.1359 48.1629 56.2457 48.3523C56.3594 48.5379 56.5033 48.6629 56.6776 48.7273C56.8556 48.7879 57.0431 48.8182 57.2401 48.8182C57.3878 48.8182 57.509 48.8106 57.6037 48.7955C57.6984 48.7765 57.7741 48.7614 57.831 48.75L58.1037 49.9545C58.0128 49.9886 57.8859 50.0227 57.723 50.0568C57.5601 50.0947 57.3537 50.1136 57.1037 50.1136C56.7249 50.1136 56.3537 50.0322 55.9901 49.8693C55.6302 49.7064 55.331 49.4583 55.0923 49.125C54.8575 48.7917 54.7401 48.3712 54.7401 47.8636V39.1818ZM59.9616 50V41.2727H61.3026V50H59.9616ZM60.6435 39.8182C60.3821 39.8182 60.1567 39.7292 59.9673 39.5511C59.7817 39.3731 59.6889 39.1591 59.6889 38.9091C59.6889 38.6591 59.7817 38.4451 59.9673 38.267C60.1567 38.089 60.3821 38 60.6435 38C60.9048 38 61.1283 38.089 61.3139 38.267C61.5033 38.4451 61.598 38.6591 61.598 38.9091C61.598 39.1591 61.5033 39.3731 61.3139 39.5511C61.1283 39.7292 60.9048 39.8182 60.6435 39.8182ZM67.6449 41.2727V42.4091H62.9403V41.2727H67.6449ZM64.3494 50V40.0682C64.3494 39.5682 64.4669 39.1515 64.7017 38.8182C64.9366 38.4848 65.2415 38.2348 65.6165 38.0682C65.9915 37.9015 66.3873 37.8182 66.804 37.8182C67.1335 37.8182 67.4025 37.8447 67.6108 37.8977C67.8191 37.9508 67.9744 38 68.0767 38.0455L67.6903 39.2045C67.6222 39.1818 67.5275 39.1534 67.4062 39.1193C67.2888 39.0852 67.1335 39.0682 66.9403 39.0682C66.4972 39.0682 66.1771 39.1799 65.9801 39.4034C65.7869 39.6269 65.6903 39.9545 65.6903 40.3864V50H64.3494ZM75.0241 46.4318V41.2727H76.3651V50H75.0241V48.5227H74.9332C74.7287 48.9659 74.4105 49.3428 73.9787 49.6534C73.5469 49.9602 73.0014 50.1136 72.3423 50.1136C71.7969 50.1136 71.312 49.9943 70.8878 49.7557C70.4635 49.5133 70.1302 49.1496 69.8878 48.6648C69.6454 48.1761 69.5241 47.5606 69.5241 46.8182V41.2727H70.8651V46.7273C70.8651 47.3636 71.0431 47.8712 71.3991 48.25C71.759 48.6288 72.2173 48.8182 72.7741 48.8182C73.1075 48.8182 73.4465 48.733 73.7912 48.5625C74.1397 48.392 74.4313 48.1307 74.6662 47.7784C74.9048 47.4261 75.0241 46.9773 75.0241 46.4318ZM80.1619 38.3636V50H78.821V38.3636H80.1619ZM87.777 38.3636L91.2315 48.1591H91.3679L94.8224 38.3636H96.2997L92.027 50H90.5724L86.2997 38.3636H87.777ZM97.9304 50V41.2727H99.2713V50H97.9304ZM98.6122 39.8182C98.3509 39.8182 98.1255 39.7292 97.9361 39.5511C97.7505 39.3731 97.6577 39.1591 97.6577 38.9091C97.6577 38.6591 97.7505 38.4451 97.9361 38.267C98.1255 38.089 98.3509 38 98.6122 38C98.8736 38 99.0971 38.089 99.2827 38.267C99.4721 38.4451 99.5668 38.6591 99.5668 38.9091C99.5668 39.1591 99.4721 39.3731 99.2827 39.5511C99.0971 39.7292 98.8736 39.8182 98.6122 39.8182ZM103.068 38.3636V50H101.727V38.3636H103.068ZM106.865 38.3636V50H105.524V38.3636H106.865ZM111.889 50.2045C111.336 50.2045 110.834 50.1004 110.384 49.892C109.933 49.6799 109.575 49.375 109.31 48.9773C109.045 48.5758 108.912 48.0909 108.912 47.5227C108.912 47.0227 109.01 46.6174 109.207 46.3068C109.404 45.9924 109.668 45.7462 109.997 45.5682C110.327 45.3902 110.69 45.2576 111.088 45.1705C111.49 45.0795 111.893 45.0076 112.298 44.9545C112.829 44.8864 113.259 44.8352 113.588 44.8011C113.921 44.7633 114.164 44.7008 114.315 44.6136C114.471 44.5265 114.548 44.375 114.548 44.1591V44.1136C114.548 43.553 114.395 43.1174 114.088 42.8068C113.785 42.4962 113.325 42.3409 112.707 42.3409C112.067 42.3409 111.565 42.4811 111.202 42.7614C110.838 43.0417 110.582 43.3409 110.435 43.6591L109.162 43.2045C109.389 42.6742 109.692 42.2614 110.071 41.9659C110.454 41.6667 110.87 41.4583 111.321 41.3409C111.776 41.2197 112.223 41.1591 112.662 41.1591C112.942 41.1591 113.264 41.1932 113.628 41.2614C113.995 41.3258 114.349 41.4602 114.69 41.6648C115.035 41.8693 115.321 42.178 115.548 42.5909C115.776 43.0038 115.889 43.5568 115.889 44.25V50H114.548V48.8182H114.48C114.389 49.0076 114.238 49.2102 114.026 49.4261C113.813 49.642 113.531 49.8258 113.179 49.9773C112.827 50.1288 112.397 50.2045 111.889 50.2045ZM112.094 49C112.624 49 113.071 48.8958 113.435 48.6875C113.802 48.4792 114.079 48.2102 114.264 47.8807C114.454 47.5511 114.548 47.2045 114.548 46.8409V45.6136C114.491 45.6818 114.366 45.7443 114.173 45.8011C113.984 45.8542 113.764 45.9015 113.514 45.9432C113.268 45.9811 113.027 46.0152 112.793 46.0455C112.562 46.072 112.374 46.0947 112.23 46.1136C111.882 46.1591 111.556 46.233 111.253 46.3352C110.954 46.4337 110.711 46.5833 110.526 46.7841C110.344 46.9811 110.253 47.25 110.253 47.5909C110.253 48.0568 110.425 48.4091 110.77 48.6477C111.118 48.8826 111.56 49 112.094 49ZM124.518 43.2273L123.314 43.5682C123.238 43.3674 123.126 43.1723 122.979 42.983C122.835 42.7898 122.638 42.6307 122.388 42.5057C122.138 42.3807 121.818 42.3182 121.428 42.3182C120.893 42.3182 120.448 42.4413 120.092 42.6875C119.74 42.9299 119.564 43.2386 119.564 43.6136C119.564 43.947 119.685 44.2102 119.928 44.4034C120.17 44.5966 120.549 44.7576 121.064 44.8864L122.359 45.2045C123.14 45.3939 123.721 45.6837 124.104 46.0739C124.486 46.4602 124.678 46.9583 124.678 47.5682C124.678 48.0682 124.534 48.5152 124.246 48.9091C123.962 49.303 123.564 49.6136 123.053 49.8409C122.541 50.0682 121.946 50.1818 121.268 50.1818C120.378 50.1818 119.642 49.9886 119.058 49.6023C118.475 49.2159 118.106 48.6515 117.95 47.9091L119.223 47.5909C119.344 48.0606 119.573 48.4129 119.911 48.6477C120.251 48.8826 120.696 49 121.246 49C121.871 49 122.367 48.8674 122.734 48.6023C123.106 48.3333 123.291 48.0114 123.291 47.6364C123.291 47.3333 123.185 47.0795 122.973 46.875C122.761 46.6667 122.435 46.5114 121.996 46.4091L120.541 46.0682C119.742 45.8788 119.155 45.5852 118.78 45.1875C118.409 44.786 118.223 44.2841 118.223 43.6818C118.223 43.1894 118.361 42.7538 118.638 42.375C118.918 41.9962 119.299 41.6989 119.78 41.483C120.265 41.267 120.814 41.1591 121.428 41.1591C122.291 41.1591 122.969 41.3485 123.462 41.7273C123.958 42.1061 124.31 42.6061 124.518 43.2273ZM131.378 50V38.3636H135.446C136.257 38.3636 136.925 38.5038 137.452 38.7841C137.978 39.0606 138.37 39.4337 138.628 39.9034C138.885 40.3693 139.014 40.8864 139.014 41.4545C139.014 41.9545 138.925 42.3674 138.747 42.6932C138.573 43.0189 138.342 43.2765 138.054 43.4659C137.77 43.6553 137.461 43.7955 137.128 43.8864V44C137.484 44.0227 137.842 44.1477 138.202 44.375C138.562 44.6023 138.863 44.928 139.105 45.3523C139.348 45.7765 139.469 46.2955 139.469 46.9091C139.469 47.4924 139.336 48.017 139.071 48.483C138.806 48.9489 138.387 49.3182 137.815 49.5909C137.243 49.8636 136.499 50 135.582 50H131.378ZM132.787 48.75H135.582C136.503 48.75 137.156 48.572 137.543 48.2159C137.933 47.8561 138.128 47.4205 138.128 46.9091C138.128 46.5152 138.027 46.1515 137.827 45.8182C137.626 45.4811 137.34 45.2121 136.969 45.0114C136.598 44.8068 136.158 44.7045 135.651 44.7045H132.787V48.75ZM132.787 43.4773H135.401C135.825 43.4773 136.207 43.3939 136.548 43.2273C136.893 43.0606 137.166 42.8258 137.366 42.5227C137.571 42.2197 137.673 41.8636 137.673 41.4545C137.673 40.9432 137.495 40.5095 137.139 40.1534C136.783 39.7936 136.219 39.6136 135.446 39.6136H132.787V43.4773ZM145.261 50.1818C144.42 50.1818 143.695 49.9962 143.085 49.625C142.479 49.25 142.011 48.7273 141.682 48.0568C141.356 47.3826 141.193 46.5985 141.193 45.7045C141.193 44.8106 141.356 44.0227 141.682 43.3409C142.011 42.6553 142.47 42.1212 143.057 41.7386C143.648 41.3523 144.337 41.1591 145.125 41.1591C145.58 41.1591 146.028 41.2348 146.472 41.3864C146.915 41.5379 147.318 41.7841 147.682 42.125C148.045 42.4621 148.335 42.9091 148.551 43.4659C148.767 44.0227 148.875 44.7083 148.875 45.5227V46.0909H142.148V44.9318H147.511C147.511 44.4394 147.413 44 147.216 43.6136C147.023 43.2273 146.746 42.9223 146.386 42.6989C146.03 42.4754 145.61 42.3636 145.125 42.3636C144.591 42.3636 144.129 42.4962 143.739 42.7614C143.352 43.0227 143.055 43.3636 142.847 43.7841C142.638 44.2045 142.534 44.6553 142.534 45.1364V45.9091C142.534 46.5682 142.648 47.1269 142.875 47.5852C143.106 48.0398 143.426 48.3864 143.835 48.625C144.244 48.8598 144.72 48.9773 145.261 48.9773C145.614 48.9773 145.932 48.928 146.216 48.8295C146.504 48.7273 146.752 48.5758 146.96 48.375C147.169 48.1705 147.33 47.9167 147.443 47.6136L148.739 47.9773C148.602 48.4167 148.373 48.803 148.051 49.1364C147.729 49.4659 147.331 49.7235 146.858 49.9091C146.384 50.0909 145.852 50.1818 145.261 50.1818ZM152.256 38.3636V50H150.915V38.3636H152.256ZM158.257 50.1818C157.469 50.1818 156.778 49.9943 156.183 49.6193C155.592 49.2443 155.13 48.7197 154.797 48.0455C154.467 47.3712 154.303 46.5833 154.303 45.6818C154.303 44.7727 154.467 43.9792 154.797 43.3011C155.13 42.6231 155.592 42.0966 156.183 41.7216C156.778 41.3466 157.469 41.1591 158.257 41.1591C159.045 41.1591 159.734 41.3466 160.325 41.7216C160.92 42.0966 161.382 42.6231 161.712 43.3011C162.045 43.9792 162.212 44.7727 162.212 45.6818C162.212 46.5833 162.045 47.3712 161.712 48.0455C161.382 48.7197 160.92 49.2443 160.325 49.6193C159.734 49.9943 159.045 50.1818 158.257 50.1818ZM158.257 48.9773C158.856 48.9773 159.348 48.8239 159.734 48.517C160.121 48.2102 160.407 47.8068 160.592 47.3068C160.778 46.8068 160.871 46.2652 160.871 45.6818C160.871 45.0985 160.778 44.5549 160.592 44.0511C160.407 43.5473 160.121 43.1402 159.734 42.8295C159.348 42.5189 158.856 42.3636 158.257 42.3636C157.659 42.3636 157.166 42.5189 156.78 42.8295C156.393 43.1402 156.107 43.5473 155.922 44.0511C155.736 44.5549 155.643 45.0985 155.643 45.6818C155.643 46.2652 155.736 46.8068 155.922 47.3068C156.107 47.8068 156.393 48.2102 156.78 48.517C157.166 48.8239 157.659 48.9773 158.257 48.9773ZM165.599 44.75V50H164.259V41.2727H165.554V42.6364H165.668C165.872 42.1932 166.183 41.8371 166.599 41.5682C167.016 41.2955 167.554 41.1591 168.213 41.1591C168.804 41.1591 169.321 41.2803 169.764 41.5227C170.207 41.7614 170.552 42.125 170.798 42.6136C171.045 43.0985 171.168 43.7121 171.168 44.4545V50H169.827V44.5455C169.827 43.8598 169.649 43.3258 169.293 42.9432C168.937 42.5568 168.448 42.3636 167.827 42.3636C167.399 42.3636 167.016 42.4564 166.679 42.642C166.346 42.8277 166.082 43.0985 165.889 43.4545C165.696 43.8106 165.599 44.2424 165.599 44.75ZM177.141 53.4545C176.493 53.4545 175.936 53.3712 175.47 53.2045C175.004 53.0417 174.616 52.8258 174.305 52.5568C173.999 52.2917 173.754 52.0076 173.572 51.7045L174.641 50.9545C174.762 51.1136 174.915 51.2955 175.101 51.5C175.286 51.7083 175.54 51.8883 175.862 52.0398C176.188 52.1951 176.614 52.2727 177.141 52.2727C177.845 52.2727 178.427 52.1023 178.885 51.7614C179.343 51.4205 179.572 50.8864 179.572 50.1591V48.3864H179.459C179.36 48.5455 179.22 48.7424 179.038 48.9773C178.86 49.2083 178.603 49.4148 178.266 49.5966C177.932 49.7746 177.482 49.8636 176.913 49.8636C176.209 49.8636 175.576 49.697 175.016 49.3636C174.459 49.0303 174.018 48.5455 173.692 47.9091C173.37 47.2727 173.209 46.5 173.209 45.5909C173.209 44.697 173.366 43.9186 173.68 43.2557C173.995 42.589 174.432 42.0739 174.993 41.7102C175.554 41.3428 176.201 41.1591 176.936 41.1591C177.504 41.1591 177.955 41.2538 178.288 41.4432C178.625 41.6288 178.883 41.8409 179.061 42.0795C179.243 42.3144 179.383 42.5076 179.482 42.6591H179.618V41.2727H180.913V50.25C180.913 51 180.743 51.6098 180.402 52.0795C180.065 52.553 179.61 52.8996 179.038 53.1193C178.47 53.3428 177.838 53.4545 177.141 53.4545ZM177.095 48.6591C177.633 48.6591 178.088 48.536 178.459 48.2898C178.83 48.0436 179.112 47.6894 179.305 47.2273C179.499 46.7652 179.595 46.2121 179.595 45.5682C179.595 44.9394 179.5 44.3845 179.311 43.9034C179.122 43.4223 178.841 43.0455 178.47 42.7727C178.099 42.5 177.641 42.3636 177.095 42.3636C176.527 42.3636 176.054 42.5076 175.675 42.7955C175.3 43.0833 175.018 43.4697 174.828 43.9545C174.643 44.4394 174.55 44.9773 174.55 45.5682C174.55 46.1742 174.644 46.7102 174.834 47.1761C175.027 47.6383 175.311 48.0019 175.686 48.267C176.065 48.5284 176.535 48.6591 177.095 48.6591ZM183.368 50V41.2727H184.709V50H183.368ZM184.05 39.8182C183.788 39.8182 183.563 39.7292 183.374 39.5511C183.188 39.3731 183.095 39.1591 183.095 38.9091C183.095 38.6591 183.188 38.4451 183.374 38.267C183.563 38.089 183.788 38 184.05 38C184.311 38 184.535 38.089 184.72 38.267C184.91 38.4451 185.004 38.6591 185.004 38.9091C185.004 39.1591 184.91 39.3731 184.72 39.5511C184.535 39.7292 184.311 39.8182 184.05 39.8182ZM188.506 44.75V50H187.165V41.2727H188.46V42.6364H188.574C188.778 42.1932 189.089 41.8371 189.506 41.5682C189.922 41.2955 190.46 41.1591 191.119 41.1591C191.71 41.1591 192.227 41.2803 192.67 41.5227C193.114 41.7614 193.458 42.125 193.705 42.6136C193.951 43.0985 194.074 43.7121 194.074 44.4545V50H192.733V44.5455C192.733 43.8598 192.555 43.3258 192.199 42.9432C191.843 42.5568 191.354 42.3636 190.733 42.3636C190.305 42.3636 189.922 42.4564 189.585 42.642C189.252 42.8277 188.989 43.0985 188.795 43.4545C188.602 43.8106 188.506 44.2424 188.506 44.75ZM200.047 53.4545C199.399 53.4545 198.842 53.3712 198.376 53.2045C197.911 53.0417 197.522 52.8258 197.212 52.5568C196.905 52.2917 196.661 52.0076 196.479 51.7045L197.547 50.9545C197.668 51.1136 197.821 51.2955 198.007 51.5C198.193 51.7083 198.446 51.8883 198.768 52.0398C199.094 52.1951 199.52 52.2727 200.047 52.2727C200.751 52.2727 201.333 52.1023 201.791 51.7614C202.25 51.4205 202.479 50.8864 202.479 50.1591V48.3864H202.365C202.267 48.5455 202.126 48.7424 201.945 48.9773C201.767 49.2083 201.509 49.4148 201.172 49.5966C200.839 49.7746 200.388 49.8636 199.82 49.8636C199.115 49.8636 198.482 49.697 197.922 49.3636C197.365 49.0303 196.924 48.5455 196.598 47.9091C196.276 47.2727 196.115 46.5 196.115 45.5909C196.115 44.697 196.272 43.9186 196.587 43.2557C196.901 42.589 197.339 42.0739 197.899 41.7102C198.46 41.3428 199.107 41.1591 199.842 41.1591C200.411 41.1591 200.861 41.2538 201.195 41.4432C201.532 41.6288 201.789 41.8409 201.967 42.0795C202.149 42.3144 202.289 42.5076 202.388 42.6591H202.524V41.2727H203.82V50.25C203.82 51 203.649 51.6098 203.308 52.0795C202.971 52.553 202.517 52.8996 201.945 53.1193C201.376 53.3428 200.744 53.4545 200.047 53.4545ZM200.001 48.6591C200.539 48.6591 200.994 48.536 201.365 48.2898C201.736 48.0436 202.018 47.6894 202.212 47.2273C202.405 46.7652 202.501 46.2121 202.501 45.5682C202.501 44.9394 202.407 44.3845 202.217 43.9034C202.028 43.4223 201.748 43.0455 201.376 42.7727C201.005 42.5 200.547 42.3636 200.001 42.3636C199.433 42.3636 198.96 42.5076 198.581 42.7955C198.206 43.0833 197.924 43.4697 197.734 43.9545C197.549 44.4394 197.456 44.9773 197.456 45.5682C197.456 46.1742 197.551 46.7102 197.74 47.1761C197.933 47.6383 198.217 48.0019 198.592 48.267C198.971 48.5284 199.441 48.6591 200.001 48.6591ZM214.57 41.2727V42.4091H210.047V41.2727H214.57ZM211.365 39.1818H212.706V47.5C212.706 47.8788 212.761 48.1629 212.871 48.3523C212.984 48.5379 213.128 48.6629 213.303 48.7273C213.481 48.7879 213.668 48.8182 213.865 48.8182C214.013 48.8182 214.134 48.8106 214.229 48.7955C214.323 48.7765 214.399 48.7614 214.456 48.75L214.729 49.9545C214.638 49.9886 214.511 50.0227 214.348 50.0568C214.185 50.0947 213.979 50.1136 213.729 50.1136C213.35 50.1136 212.979 50.0322 212.615 49.8693C212.255 49.7064 211.956 49.4583 211.717 49.125C211.482 48.7917 211.365 48.3712 211.365 47.8636V39.1818ZM220.038 50.1818C219.25 50.1818 218.559 49.9943 217.964 49.6193C217.374 49.2443 216.911 48.7197 216.578 48.0455C216.249 47.3712 216.084 46.5833 216.084 45.6818C216.084 44.7727 216.249 43.9792 216.578 43.3011C216.911 42.6231 217.374 42.0966 217.964 41.7216C218.559 41.3466 219.25 41.1591 220.038 41.1591C220.826 41.1591 221.516 41.3466 222.107 41.7216C222.701 42.0966 223.163 42.6231 223.493 43.3011C223.826 43.9792 223.993 44.7727 223.993 45.6818C223.993 46.5833 223.826 47.3712 223.493 48.0455C223.163 48.7197 222.701 49.2443 222.107 49.6193C221.516 49.9943 220.826 50.1818 220.038 50.1818ZM220.038 48.9773C220.637 48.9773 221.129 48.8239 221.516 48.517C221.902 48.2102 222.188 47.8068 222.374 47.3068C222.559 46.8068 222.652 46.2652 222.652 45.6818C222.652 45.0985 222.559 44.5549 222.374 44.0511C222.188 43.5473 221.902 43.1402 221.516 42.8295C221.129 42.5189 220.637 42.3636 220.038 42.3636C219.44 42.3636 218.947 42.5189 218.561 42.8295C218.175 43.1402 217.889 43.5473 217.703 44.0511C217.518 44.5549 217.425 45.0985 217.425 45.6818C217.425 46.2652 217.518 46.8068 217.703 47.3068C217.889 47.8068 218.175 48.2102 218.561 48.517C218.947 48.8239 219.44 48.9773 220.038 48.9773ZM231.199 50H229.722L233.994 38.3636H235.449L239.722 50H238.244L234.767 40.2045H234.676L231.199 50ZM231.744 45.4545H237.699V46.7045H231.744V45.4545ZM241.352 50V41.2727H242.648V42.5909H242.739C242.898 42.1591 243.186 41.8087 243.602 41.5398C244.019 41.2708 244.489 41.1364 245.011 41.1364C245.11 41.1364 245.233 41.1383 245.381 41.142C245.528 41.1458 245.64 41.1515 245.716 41.1591V42.5227C245.67 42.5114 245.566 42.4943 245.403 42.4716C245.244 42.4451 245.076 42.4318 244.898 42.4318C244.473 42.4318 244.095 42.5208 243.761 42.6989C243.432 42.8731 243.17 43.1155 242.977 43.4261C242.788 43.733 242.693 44.0833 242.693 44.4773V50H241.352ZM251.648 41.2727V42.4091H247.125V41.2727H251.648ZM248.443 39.1818H249.784V47.5C249.784 47.8788 249.839 48.1629 249.949 48.3523C250.063 48.5379 250.206 48.6629 250.381 48.7273C250.559 48.7879 250.746 48.8182 250.943 48.8182C251.091 48.8182 251.212 48.8106 251.307 48.7955C251.402 48.7765 251.477 48.7614 251.534 48.75L251.807 49.9545C251.716 49.9886 251.589 50.0227 251.426 50.0568C251.263 50.0947 251.057 50.1136 250.807 50.1136C250.428 50.1136 250.057 50.0322 249.693 49.8693C249.333 49.7064 249.034 49.4583 248.795 49.125C248.561 48.7917 248.443 48.3712 248.443 47.8636V39.1818ZM253.665 50V41.2727H255.006V50H253.665ZM254.347 39.8182C254.085 39.8182 253.86 39.7292 253.67 39.5511C253.485 39.3731 253.392 39.1591 253.392 38.9091C253.392 38.6591 253.485 38.4451 253.67 38.267C253.86 38.089 254.085 38 254.347 38C254.608 38 254.831 38.089 255.017 38.267C255.206 38.4451 255.301 38.6591 255.301 38.9091C255.301 39.1591 255.206 39.3731 255.017 39.5511C254.831 39.7292 254.608 39.8182 254.347 39.8182ZM263.643 43.2273L262.439 43.5682C262.363 43.3674 262.251 43.1723 262.104 42.983C261.96 42.7898 261.763 42.6307 261.513 42.5057C261.263 42.3807 260.943 42.3182 260.553 42.3182C260.018 42.3182 259.573 42.4413 259.217 42.6875C258.865 42.9299 258.689 43.2386 258.689 43.6136C258.689 43.947 258.81 44.2102 259.053 44.4034C259.295 44.5966 259.674 44.7576 260.189 44.8864L261.484 45.2045C262.265 45.3939 262.846 45.6837 263.229 46.0739C263.611 46.4602 263.803 46.9583 263.803 47.5682C263.803 48.0682 263.659 48.5152 263.371 48.9091C263.087 49.303 262.689 49.6136 262.178 49.8409C261.666 50.0682 261.071 50.1818 260.393 50.1818C259.503 50.1818 258.767 49.9886 258.183 49.6023C257.6 49.2159 257.231 48.6515 257.075 47.9091L258.348 47.5909C258.469 48.0606 258.698 48.4129 259.036 48.6477C259.376 48.8826 259.821 49 260.371 49C260.996 49 261.492 48.8674 261.859 48.6023C262.231 48.3333 262.416 48.0114 262.416 47.6364C262.416 47.3333 262.31 47.0795 262.098 46.875C261.886 46.6667 261.56 46.5114 261.121 46.4091L259.666 46.0682C258.867 45.8788 258.28 45.5852 257.905 45.1875C257.534 44.786 257.348 44.2841 257.348 43.6818C257.348 43.1894 257.486 42.7538 257.763 42.375C258.043 41.9962 258.424 41.6989 258.905 41.483C259.39 41.267 259.939 41.1591 260.553 41.1591C261.416 41.1591 262.094 41.3485 262.587 41.7273C263.083 42.1061 263.435 42.6061 263.643 43.2273ZM269.616 41.2727V42.4091H265.094V41.2727H269.616ZM266.412 39.1818H267.753V47.5C267.753 47.8788 267.808 48.1629 267.918 48.3523C268.031 48.5379 268.175 48.6629 268.349 48.7273C268.527 48.7879 268.715 48.8182 268.912 48.8182C269.06 48.8182 269.181 48.8106 269.276 48.7955C269.37 48.7765 269.446 48.7614 269.503 48.75L269.776 49.9545C269.685 49.9886 269.558 50.0227 269.395 50.0568C269.232 50.0947 269.026 50.1136 268.776 50.1136C268.397 50.1136 268.026 50.0322 267.662 49.8693C267.302 49.7064 267.003 49.4583 266.764 49.125C266.529 48.7917 266.412 48.3712 266.412 47.8636V39.1818ZM277.659 43.2273L276.455 43.5682C276.379 43.3674 276.267 43.1723 276.119 42.983C275.975 42.7898 275.778 42.6307 275.528 42.5057C275.278 42.3807 274.958 42.3182 274.568 42.3182C274.034 42.3182 273.589 42.4413 273.233 42.6875C272.881 42.9299 272.705 43.2386 272.705 43.6136C272.705 43.947 272.826 44.2102 273.068 44.4034C273.311 44.5966 273.689 44.7576 274.205 44.8864L275.5 45.2045C276.28 45.3939 276.862 45.6837 277.244 46.0739C277.627 46.4602 277.818 46.9583 277.818 47.5682C277.818 48.0682 277.674 48.5152 277.386 48.9091C277.102 49.303 276.705 49.6136 276.193 49.8409C275.682 50.0682 275.087 50.1818 274.409 50.1818C273.519 50.1818 272.782 49.9886 272.199 49.6023C271.616 49.2159 271.246 48.6515 271.091 47.9091L272.364 47.5909C272.485 48.0606 272.714 48.4129 273.051 48.6477C273.392 48.8826 273.837 49 274.386 49C275.011 49 275.508 48.8674 275.875 48.6023C276.246 48.3333 276.432 48.0114 276.432 47.6364C276.432 47.3333 276.326 47.0795 276.114 46.875C275.902 46.6667 275.576 46.5114 275.136 46.4091L273.682 46.0682C272.883 45.8788 272.295 45.5852 271.92 45.1875C271.549 44.786 271.364 44.2841 271.364 43.6818C271.364 43.1894 271.502 42.7538 271.778 42.375C272.059 41.9962 272.439 41.6989 272.92 41.483C273.405 41.267 273.955 41.1591 274.568 41.1591C275.432 41.1591 276.11 41.3485 276.602 41.7273C277.098 42.1061 277.451 42.6061 277.659 43.2273ZM283.518 38.3636H285.132L288.359 43.7955H288.496L291.723 38.3636H293.337L289.132 45.2045V50H287.723V45.2045L283.518 38.3636ZM297.288 50.1818C296.5 50.1818 295.809 49.9943 295.214 49.6193C294.624 49.2443 294.161 48.7197 293.828 48.0455C293.499 47.3712 293.334 46.5833 293.334 45.6818C293.334 44.7727 293.499 43.9792 293.828 43.3011C294.161 42.6231 294.624 42.0966 295.214 41.7216C295.809 41.3466 296.5 41.1591 297.288 41.1591C298.076 41.1591 298.766 41.3466 299.357 41.7216C299.951 42.0966 300.413 42.6231 300.743 43.3011C301.076 43.9792 301.243 44.7727 301.243 45.6818C301.243 46.5833 301.076 47.3712 300.743 48.0455C300.413 48.7197 299.951 49.2443 299.357 49.6193C298.766 49.9943 298.076 50.1818 297.288 50.1818ZM297.288 48.9773C297.887 48.9773 298.379 48.8239 298.766 48.517C299.152 48.2102 299.438 47.8068 299.624 47.3068C299.809 46.8068 299.902 46.2652 299.902 45.6818C299.902 45.0985 299.809 44.5549 299.624 44.0511C299.438 43.5473 299.152 43.1402 298.766 42.8295C298.379 42.5189 297.887 42.3636 297.288 42.3636C296.69 42.3636 296.197 42.5189 295.811 42.8295C295.425 43.1402 295.139 43.5473 294.953 44.0511C294.768 44.5549 294.675 45.0985 294.675 45.6818C294.675 46.2652 294.768 46.8068 294.953 47.3068C295.139 47.8068 295.425 48.2102 295.811 48.517C296.197 48.8239 296.69 48.9773 297.288 48.9773ZM308.79 46.4318V41.2727H310.131V50H308.79V48.5227H308.699C308.494 48.9659 308.176 49.3428 307.744 49.6534C307.313 49.9602 306.767 50.1136 306.108 50.1136C305.562 50.1136 305.078 49.9943 304.653 49.7557C304.229 49.5133 303.896 49.1496 303.653 48.6648C303.411 48.1761 303.29 47.5606 303.29 46.8182V41.2727H304.631V46.7273C304.631 47.3636 304.809 47.8712 305.165 48.25C305.525 48.6288 305.983 48.8182 306.54 48.8182C306.873 48.8182 307.212 48.733 307.557 48.5625C307.905 48.392 308.197 48.1307 308.432 47.7784C308.67 47.4261 308.79 46.9773 308.79 46.4318ZM326.496 38.3636V50H325.132L318.791 40.8636H318.678V50H317.268V38.3636H318.632L324.996 47.5227H325.109V38.3636H326.496ZM332.793 50.1818C331.952 50.1818 331.226 49.9962 330.616 49.625C330.01 49.25 329.543 48.7273 329.213 48.0568C328.887 47.3826 328.724 46.5985 328.724 45.7045C328.724 44.8106 328.887 44.0227 329.213 43.3409C329.543 42.6553 330.001 42.1212 330.588 41.7386C331.179 41.3523 331.868 41.1591 332.656 41.1591C333.111 41.1591 333.56 41.2348 334.003 41.3864C334.446 41.5379 334.849 41.7841 335.213 42.125C335.577 42.4621 335.866 42.9091 336.082 43.4659C336.298 44.0227 336.406 44.7083 336.406 45.5227V46.0909H329.679V44.9318H335.043C335.043 44.4394 334.944 44 334.747 43.6136C334.554 43.2273 334.277 42.9223 333.918 42.6989C333.562 42.4754 333.141 42.3636 332.656 42.3636C332.122 42.3636 331.66 42.4962 331.27 42.7614C330.884 43.0227 330.586 43.3636 330.378 43.7841C330.17 44.2045 330.065 44.6553 330.065 45.1364V45.9091C330.065 46.5682 330.179 47.1269 330.406 47.5852C330.637 48.0398 330.957 48.3864 331.366 48.625C331.776 48.8598 332.251 48.9773 332.793 48.9773C333.145 48.9773 333.463 48.928 333.747 48.8295C334.035 48.7273 334.283 48.5758 334.491 48.375C334.7 48.1705 334.861 47.9167 334.974 47.6136L336.27 47.9773C336.134 48.4167 335.904 48.803 335.582 49.1364C335.26 49.4659 334.863 49.7235 334.389 49.9091C333.916 50.0909 333.384 50.1818 332.793 50.1818ZM342.105 50.1818C341.264 50.1818 340.539 49.9962 339.929 49.625C339.323 49.25 338.855 48.7273 338.526 48.0568C338.2 47.3826 338.037 46.5985 338.037 45.7045C338.037 44.8106 338.2 44.0227 338.526 43.3409C338.855 42.6553 339.313 42.1212 339.901 41.7386C340.491 41.3523 341.181 41.1591 341.969 41.1591C342.423 41.1591 342.872 41.2348 343.315 41.3864C343.759 41.5379 344.162 41.7841 344.526 42.125C344.889 42.4621 345.179 42.9091 345.395 43.4659C345.611 44.0227 345.719 44.7083 345.719 45.5227V46.0909H338.991V44.9318H344.355C344.355 44.4394 344.257 44 344.06 43.6136C343.866 43.2273 343.59 42.9223 343.23 42.6989C342.874 42.4754 342.454 42.3636 341.969 42.3636C341.435 42.3636 340.973 42.4962 340.582 42.7614C340.196 43.0227 339.899 43.3636 339.69 43.7841C339.482 44.2045 339.378 44.6553 339.378 45.1364V45.9091C339.378 46.5682 339.491 47.1269 339.719 47.5852C339.95 48.0398 340.27 48.3864 340.679 48.625C341.088 48.8598 341.563 48.9773 342.105 48.9773C342.457 48.9773 342.776 48.928 343.06 48.8295C343.348 48.7273 343.596 48.5758 343.804 48.375C344.012 48.1705 344.173 47.9167 344.287 47.6136L345.582 47.9773C345.446 48.4167 345.217 48.803 344.895 49.1364C344.573 49.4659 344.175 49.7235 343.702 49.9091C343.228 50.0909 342.696 50.1818 342.105 50.1818ZM351.054 50.1818C350.327 50.1818 349.685 49.9981 349.128 49.6307C348.571 49.2595 348.135 48.7367 347.821 48.0625C347.507 47.3845 347.349 46.5833 347.349 45.6591C347.349 44.7424 347.507 43.947 347.821 43.2727C348.135 42.5985 348.573 42.0777 349.134 41.7102C349.694 41.3428 350.342 41.1591 351.077 41.1591C351.645 41.1591 352.094 41.2538 352.423 41.4432C352.757 41.6288 353.01 41.8409 353.185 42.0795C353.363 42.3144 353.501 42.5076 353.599 42.6591H353.713V38.3636H355.054V50H353.759V48.6591H353.599C353.501 48.8182 353.361 49.0189 353.179 49.2614C352.997 49.5 352.738 49.714 352.401 49.9034C352.063 50.089 351.615 50.1818 351.054 50.1818ZM351.236 48.9773C351.774 48.9773 352.228 48.8371 352.599 48.5568C352.971 48.2727 353.253 47.8807 353.446 47.3807C353.639 46.8769 353.736 46.2955 353.736 45.6364C353.736 44.9848 353.641 44.4148 353.452 43.9261C353.262 43.4337 352.982 43.0511 352.611 42.7784C352.24 42.5019 351.781 42.3636 351.236 42.3636C350.668 42.3636 350.194 42.5095 349.815 42.8011C349.44 43.089 349.158 43.4811 348.969 43.9773C348.783 44.4697 348.69 45.0227 348.69 45.6364C348.69 46.2576 348.785 46.822 348.974 47.3295C349.168 47.8333 349.452 48.2348 349.827 48.5341C350.205 48.8295 350.675 48.9773 351.236 48.9773ZM365.991 41.2727V42.4091H361.469V41.2727H365.991ZM362.787 39.1818H364.128V47.5C364.128 47.8788 364.183 48.1629 364.293 48.3523C364.406 48.5379 364.55 48.6629 364.724 48.7273C364.902 48.7879 365.09 48.8182 365.287 48.8182C365.435 48.8182 365.556 48.8106 365.651 48.7955C365.745 48.7765 365.821 48.7614 365.878 48.75L366.151 49.9545C366.06 49.9886 365.933 50.0227 365.77 50.0568C365.607 50.0947 365.401 50.1136 365.151 50.1136C364.772 50.1136 364.401 50.0322 364.037 49.8693C363.677 49.7064 363.378 49.4583 363.139 49.125C362.904 48.7917 362.787 48.3712 362.787 47.8636V39.1818ZM371.46 50.1818C370.672 50.1818 369.981 49.9943 369.386 49.6193C368.795 49.2443 368.333 48.7197 368 48.0455C367.67 47.3712 367.506 46.5833 367.506 45.6818C367.506 44.7727 367.67 43.9792 368 43.3011C368.333 42.6231 368.795 42.0966 369.386 41.7216C369.981 41.3466 370.672 41.1591 371.46 41.1591C372.248 41.1591 372.938 41.3466 373.528 41.7216C374.123 42.0966 374.585 42.6231 374.915 43.3011C375.248 43.9792 375.415 44.7727 375.415 45.6818C375.415 46.5833 375.248 47.3712 374.915 48.0455C374.585 48.7197 374.123 49.2443 373.528 49.6193C372.938 49.9943 372.248 50.1818 371.46 50.1818ZM371.46 48.9773C372.059 48.9773 372.551 48.8239 372.938 48.517C373.324 48.2102 373.61 47.8068 373.795 47.3068C373.981 46.8068 374.074 46.2652 374.074 45.6818C374.074 45.0985 373.981 44.5549 373.795 44.0511C373.61 43.5473 373.324 43.1402 372.938 42.8295C372.551 42.5189 372.059 42.3636 371.46 42.3636C370.862 42.3636 370.369 42.5189 369.983 42.8295C369.597 43.1402 369.311 43.5473 369.125 44.0511C368.939 44.5549 368.847 45.0985 368.847 45.6818C368.847 46.2652 368.939 46.8068 369.125 47.3068C369.311 47.8068 369.597 48.2102 369.983 48.517C370.369 48.8239 370.862 48.9773 371.46 48.9773ZM388.507 41.2727C388.439 40.697 388.162 40.25 387.678 39.9318C387.193 39.6136 386.598 39.4545 385.893 39.4545C385.378 39.4545 384.928 39.5379 384.541 39.7045C384.159 39.8712 383.859 40.1004 383.643 40.392C383.431 40.6837 383.325 41.0152 383.325 41.3864C383.325 41.697 383.399 41.964 383.547 42.1875C383.698 42.4072 383.892 42.5909 384.126 42.7386C384.361 42.8826 384.607 43.0019 384.865 43.0966C385.123 43.1875 385.359 43.2614 385.575 43.3182L386.757 43.6364C387.06 43.7159 387.397 43.8258 387.768 43.9659C388.143 44.1061 388.501 44.2973 388.842 44.5398C389.187 44.7784 389.471 45.0852 389.695 45.4602C389.918 45.8352 390.03 46.2955 390.03 46.8409C390.03 47.4697 389.865 48.0379 389.536 48.5455C389.21 49.053 388.732 49.4564 388.104 49.7557C387.479 50.0549 386.719 50.2045 385.825 50.2045C384.992 50.2045 384.27 50.0701 383.661 49.8011C383.054 49.5322 382.577 49.1572 382.229 48.6761C381.884 48.1951 381.689 47.6364 381.643 47H383.098C383.136 47.4394 383.284 47.803 383.541 48.0909C383.803 48.375 384.132 48.5871 384.53 48.7273C384.931 48.8636 385.363 48.9318 385.825 48.9318C386.363 48.9318 386.846 48.8447 387.274 48.6705C387.702 48.4924 388.041 48.2462 388.291 47.9318C388.541 47.6136 388.666 47.2424 388.666 46.8182C388.666 46.4318 388.558 46.1174 388.342 45.875C388.126 45.6326 387.842 45.4356 387.49 45.2841C387.138 45.1326 386.757 45 386.348 44.8864L384.916 44.4773C384.007 44.2159 383.287 43.8428 382.757 43.358C382.227 42.8731 381.962 42.2386 381.962 41.4545C381.962 40.803 382.138 40.2348 382.49 39.75C382.846 39.2614 383.323 38.8826 383.922 38.6136C384.524 38.3409 385.196 38.2045 385.939 38.2045C386.689 38.2045 387.356 38.339 387.939 38.608C388.522 38.8731 388.984 39.2367 389.325 39.6989C389.67 40.161 389.852 40.6856 389.871 41.2727H388.507ZM395.824 50.1818C394.983 50.1818 394.258 49.9962 393.648 49.625C393.042 49.25 392.574 48.7273 392.244 48.0568C391.919 47.3826 391.756 46.5985 391.756 45.7045C391.756 44.8106 391.919 44.0227 392.244 43.3409C392.574 42.6553 393.032 42.1212 393.619 41.7386C394.21 41.3523 394.9 41.1591 395.688 41.1591C396.142 41.1591 396.591 41.2348 397.034 41.3864C397.477 41.5379 397.881 41.7841 398.244 42.125C398.608 42.4621 398.898 42.9091 399.114 43.4659C399.33 44.0227 399.438 44.7083 399.438 45.5227V46.0909H392.71V44.9318H398.074C398.074 44.4394 397.975 44 397.778 43.6136C397.585 43.2273 397.309 42.9223 396.949 42.6989C396.593 42.4754 396.172 42.3636 395.688 42.3636C395.153 42.3636 394.691 42.4962 394.301 42.7614C393.915 43.0227 393.617 43.3636 393.409 43.7841C393.201 44.2045 393.097 44.6553 393.097 45.1364V45.9091C393.097 46.5682 393.21 47.1269 393.438 47.5852C393.669 48.0398 393.989 48.3864 394.398 48.625C394.807 48.8598 395.282 48.9773 395.824 48.9773C396.176 48.9773 396.494 48.928 396.778 48.8295C397.066 48.7273 397.314 48.5758 397.523 48.375C397.731 48.1705 397.892 47.9167 398.006 47.6136L399.301 47.9773C399.165 48.4167 398.936 48.803 398.614 49.1364C398.292 49.4659 397.894 49.7235 397.42 49.9091C396.947 50.0909 396.415 50.1818 395.824 50.1818ZM405.136 50.1818C404.295 50.1818 403.57 49.9962 402.96 49.625C402.354 49.25 401.886 48.7273 401.557 48.0568C401.231 47.3826 401.068 46.5985 401.068 45.7045C401.068 44.8106 401.231 44.0227 401.557 43.3409C401.886 42.6553 402.345 42.1212 402.932 41.7386C403.523 41.3523 404.212 41.1591 405 41.1591C405.455 41.1591 405.903 41.2348 406.347 41.3864C406.79 41.5379 407.193 41.7841 407.557 42.125C407.92 42.4621 408.21 42.9091 408.426 43.4659C408.642 44.0227 408.75 44.7083 408.75 45.5227V46.0909H402.023V44.9318H407.386C407.386 44.4394 407.288 44 407.091 43.6136C406.898 43.2273 406.621 42.9223 406.261 42.6989C405.905 42.4754 405.485 42.3636 405 42.3636C404.466 42.3636 404.004 42.4962 403.614 42.7614C403.227 43.0227 402.93 43.3636 402.722 43.7841C402.513 44.2045 402.409 44.6553 402.409 45.1364V45.9091C402.409 46.5682 402.523 47.1269 402.75 47.5852C402.981 48.0398 403.301 48.3864 403.71 48.625C404.119 48.8598 404.595 48.9773 405.136 48.9773C405.489 48.9773 405.807 48.928 406.091 48.8295C406.379 48.7273 406.627 48.5758 406.835 48.375C407.044 48.1705 407.205 47.9167 407.318 47.6136L408.614 47.9773C408.477 48.4167 408.248 48.803 407.926 49.1364C407.604 49.4659 407.206 49.7235 406.733 49.9091C406.259 50.0909 405.727 50.1818 405.136 50.1818Z" fill="#8D8E97"/>
<path d="M446.031 23L451.031 28M451.031 28L446.031 33M451.031 28H434.531" stroke="#313037" stroke-width="2" stroke-linecap="round" stroke-linejoin="round"/>
</svg>
