<svg width="335" height="56" viewBox="0 0 335 56" fill="none" xmlns="http://www.w3.org/2000/svg">
<path d="M6.09375 33L1.09375 28M1.09375 28L6.09375 23M1.09375 28H17.5938" stroke="#313037" stroke-width="2" stroke-linecap="round" stroke-linejoin="round"/>
<path d="M42.8722 18V6.36364H47.0199C47.9252 6.36364 48.6752 6.52841 49.2699 6.85795C49.8646 7.1875 50.3097 7.63826 50.6051 8.21023C50.9006 8.77841 51.0483 9.41856 51.0483 10.1307C51.0483 10.8466 50.8987 11.4905 50.5994 12.0625C50.304 12.6307 49.857 13.0814 49.2585 13.4148C48.6638 13.7443 47.9157 13.9091 47.0142 13.9091H44.1619V12.4205H46.8551C47.4271 12.4205 47.8911 12.322 48.2472 12.125C48.6032 11.9242 48.8646 11.6515 49.0312 11.3068C49.1979 10.9621 49.2812 10.5701 49.2812 10.1307C49.2812 9.69129 49.1979 9.30114 49.0312 8.96023C48.8646 8.61932 48.6013 8.35227 48.2415 8.15909C47.8854 7.96591 47.4157 7.86932 46.8324 7.86932H44.6278V18H42.8722ZM52.9702 18V9.27273H54.6122V10.6591H54.7031C54.8622 10.1894 55.1425 9.82008 55.544 9.55114C55.9493 9.27841 56.4077 9.14205 56.919 9.14205C57.0251 9.14205 57.1501 9.14583 57.294 9.15341C57.4418 9.16098 57.5573 9.17045 57.6406 9.18182V10.8068C57.5724 10.7879 57.4512 10.767 57.277 10.7443C57.1027 10.7178 56.9285 10.7045 56.7543 10.7045C56.3527 10.7045 55.9948 10.7898 55.6804 10.9602C55.3698 11.1269 55.1236 11.3598 54.9418 11.6591C54.7599 11.9545 54.669 12.2917 54.669 12.6705V18H52.9702ZM62.5597 18.1761C61.6998 18.1761 60.9593 17.9924 60.3381 17.625C59.7206 17.2538 59.2434 16.733 58.9062 16.0625C58.5729 15.3883 58.4062 14.5985 58.4062 13.6932C58.4062 12.7992 58.5729 12.0114 58.9062 11.3295C59.2434 10.6477 59.7131 10.1155 60.3153 9.73295C60.9214 9.35038 61.6297 9.15909 62.4403 9.15909C62.9328 9.15909 63.41 9.24053 63.8722 9.40341C64.3343 9.56629 64.7491 9.82197 65.1165 10.1705C65.4839 10.5189 65.7737 10.9716 65.9858 11.5284C66.1979 12.0814 66.304 12.7538 66.304 13.5455V14.1477H59.3665V12.875H64.6392C64.6392 12.428 64.5483 12.0322 64.3665 11.6875C64.1847 11.339 63.929 11.0644 63.5994 10.8636C63.2737 10.6629 62.8911 10.5625 62.4517 10.5625C61.9744 10.5625 61.5578 10.6799 61.2017 10.9148C60.8494 11.1458 60.5767 11.4489 60.3835 11.8239C60.1941 12.1951 60.0994 12.5985 60.0994 13.0341V14.0284C60.0994 14.6117 60.2017 15.108 60.4062 15.517C60.6146 15.9261 60.9044 16.2386 61.2756 16.4545C61.6468 16.6667 62.0805 16.7727 62.5767 16.7727C62.8987 16.7727 63.1922 16.7273 63.4574 16.6364C63.7225 16.5417 63.9517 16.4015 64.1449 16.2159C64.3381 16.0303 64.4858 15.8011 64.5881 15.5284L66.196 15.8182C66.0672 16.2917 65.8362 16.7064 65.5028 17.0625C65.1733 17.4148 64.7585 17.6894 64.2585 17.8864C63.7623 18.0795 63.196 18.1761 62.5597 18.1761ZM75.4048 9.27273L72.2401 18H70.4219L67.2514 9.27273H69.0753L71.2855 15.9886H71.3764L73.581 9.27273H75.4048Z" fill="#313037"/>
<path d="M46.8892 38.3636V50H45.4801V39.8409H45.4119L42.571 41.7273V40.2955L45.4801 38.3636H46.8892ZM54.0312 50.1591C53.1752 50.1591 52.446 49.9261 51.8438 49.4602C51.2415 48.9905 50.7813 48.3106 50.4631 47.4205C50.1449 46.5265 49.9858 45.447 49.9858 44.1818C49.9858 42.9242 50.1449 41.8504 50.4631 40.9602C50.785 40.0663 51.2472 39.3845 51.8494 38.9148C52.4555 38.4413 53.1828 38.2045 54.0312 38.2045C54.8797 38.2045 55.6051 38.4413 56.2074 38.9148C56.8134 39.3845 57.2756 40.0663 57.5938 40.9602C57.9157 41.8504 58.0767 42.9242 58.0767 44.1818C58.0767 45.447 57.9176 46.5265 57.5994 47.4205C57.2812 48.3106 56.821 48.9905 56.2188 49.4602C55.6165 49.9261 54.8873 50.1591 54.0312 50.1591ZM54.0312 48.9091C54.8797 48.9091 55.5388 48.5 56.0085 47.6818C56.4782 46.8636 56.7131 45.697 56.7131 44.1818C56.7131 43.1742 56.6051 42.3163 56.3892 41.608C56.1771 40.8996 55.8703 40.3598 55.4688 39.9886C55.071 39.6174 54.5919 39.4318 54.0312 39.4318C53.1903 39.4318 52.5331 39.8466 52.0597 40.6761C51.5862 41.5019 51.3494 42.6705 51.3494 44.1818C51.3494 45.1894 51.4555 46.0455 51.6676 46.75C51.8797 47.4545 52.1847 47.9905 52.5824 48.358C52.9839 48.7254 53.4669 48.9091 54.0312 48.9091ZM64.304 39.6136V38.3636H73.0312V39.6136H69.3722V50H67.9631V39.6136H64.304ZM76.3651 44.75V50H75.0241V38.3636H76.3651V42.6364H76.4787C76.6832 42.1856 76.9901 41.8277 77.3991 41.5625C77.812 41.2936 78.3613 41.1591 79.0469 41.1591C79.6416 41.1591 80.1624 41.2784 80.6094 41.517C81.0563 41.7519 81.4029 42.1136 81.6491 42.6023C81.8991 43.0871 82.0241 43.7045 82.0241 44.4545V50H80.6832V44.5455C80.6832 43.8523 80.5033 43.3163 80.1435 42.9375C79.7874 42.5549 79.2931 42.3636 78.6605 42.3636C78.2211 42.3636 77.8272 42.4564 77.4787 42.642C77.134 42.8277 76.8613 43.0985 76.6605 43.4545C76.4635 43.8106 76.3651 44.2424 76.3651 44.75ZM84.4773 50V41.2727H85.8182V50H84.4773ZM85.1591 39.8182C84.8977 39.8182 84.6723 39.7292 84.483 39.5511C84.2973 39.3731 84.2045 39.1591 84.2045 38.9091C84.2045 38.6591 84.2973 38.4451 84.483 38.267C84.6723 38.089 84.8977 38 85.1591 38C85.4205 38 85.6439 38.089 85.8295 38.267C86.0189 38.4451 86.1136 38.6591 86.1136 38.9091C86.1136 39.1591 86.0189 39.3731 85.8295 39.5511C85.6439 39.7292 85.4205 39.8182 85.1591 39.8182ZM89.6151 44.75V50H88.2741V41.2727H89.5696V42.6364H89.6832C89.8878 42.1932 90.1984 41.8371 90.6151 41.5682C91.0317 41.2955 91.5696 41.1591 92.2287 41.1591C92.8196 41.1591 93.3366 41.2803 93.7798 41.5227C94.223 41.7614 94.5677 42.125 94.8139 42.6136C95.0601 43.0985 95.1832 43.7121 95.1832 44.4545V50H93.8423V44.5455C93.8423 43.8598 93.6643 43.3258 93.3082 42.9432C92.9522 42.5568 92.4635 42.3636 91.8423 42.3636C91.4143 42.3636 91.0317 42.4564 90.6946 42.642C90.3613 42.8277 90.098 43.0985 89.9048 43.4545C89.7116 43.8106 89.6151 44.2424 89.6151 44.75ZM101.156 53.4545C100.509 53.4545 99.9517 53.3712 99.4858 53.2045C99.0199 53.0417 98.6316 52.8258 98.321 52.5568C98.0142 52.2917 97.7699 52.0076 97.5881 51.7045L98.6562 50.9545C98.7775 51.1136 98.9309 51.2955 99.1165 51.5C99.3021 51.7083 99.5559 51.8883 99.8778 52.0398C100.204 52.1951 100.63 52.2727 101.156 52.2727C101.861 52.2727 102.442 52.1023 102.901 51.7614C103.359 51.4205 103.588 50.8864 103.588 50.1591V48.3864H103.474C103.376 48.5455 103.236 48.7424 103.054 48.9773C102.876 49.2083 102.618 49.4148 102.281 49.5966C101.948 49.7746 101.497 49.8636 100.929 49.8636C100.224 49.8636 99.5919 49.697 99.0312 49.3636C98.4744 49.0303 98.0331 48.5455 97.7074 47.9091C97.3854 47.2727 97.2244 46.5 97.2244 45.5909C97.2244 44.697 97.3816 43.9186 97.696 43.2557C98.0104 42.589 98.4479 42.0739 99.0085 41.7102C99.5691 41.3428 100.217 41.1591 100.952 41.1591C101.52 41.1591 101.971 41.2538 102.304 41.4432C102.641 41.6288 102.899 41.8409 103.077 42.0795C103.259 42.3144 103.399 42.5076 103.497 42.6591H103.634V41.2727H104.929V50.25C104.929 51 104.759 51.6098 104.418 52.0795C104.08 52.553 103.626 52.8996 103.054 53.1193C102.486 53.3428 101.853 53.4545 101.156 53.4545ZM101.111 48.6591C101.649 48.6591 102.103 48.536 102.474 48.2898C102.846 48.0436 103.128 47.6894 103.321 47.2273C103.514 46.7652 103.611 46.2121 103.611 45.5682C103.611 44.9394 103.516 44.3845 103.327 43.9034C103.137 43.4223 102.857 43.0455 102.486 42.7727C102.115 42.5 101.656 42.3636 101.111 42.3636C100.543 42.3636 100.069 42.5076 99.6903 42.7955C99.3153 43.0833 99.0331 43.4697 98.8438 43.9545C98.6581 44.4394 98.5653 44.9773 98.5653 45.5682C98.5653 46.1742 98.66 46.7102 98.8494 47.1761C99.0426 47.6383 99.3267 48.0019 99.7017 48.267C100.08 48.5284 100.55 48.6591 101.111 48.6591ZM113.565 43.2273L112.361 43.5682C112.285 43.3674 112.173 43.1723 112.026 42.983C111.882 42.7898 111.685 42.6307 111.435 42.5057C111.185 42.3807 110.865 42.3182 110.474 42.3182C109.94 42.3182 109.495 42.4413 109.139 42.6875C108.787 42.9299 108.611 43.2386 108.611 43.6136C108.611 43.947 108.732 44.2102 108.974 44.4034C109.217 44.5966 109.596 44.7576 110.111 44.8864L111.406 45.2045C112.187 45.3939 112.768 45.6837 113.151 46.0739C113.533 46.4602 113.724 46.9583 113.724 47.5682C113.724 48.0682 113.58 48.5152 113.293 48.9091C113.009 49.303 112.611 49.6136 112.099 49.8409C111.588 50.0682 110.993 50.1818 110.315 50.1818C109.425 50.1818 108.688 49.9886 108.105 49.6023C107.522 49.2159 107.152 48.6515 106.997 47.9091L108.27 47.5909C108.391 48.0606 108.62 48.4129 108.957 48.6477C109.298 48.8826 109.743 49 110.293 49C110.918 49 111.414 48.8674 111.781 48.6023C112.152 48.3333 112.338 48.0114 112.338 47.6364C112.338 47.3333 112.232 47.0795 112.02 46.875C111.808 46.6667 111.482 46.5114 111.043 46.4091L109.588 46.0682C108.789 45.8788 108.202 45.5852 107.827 45.1875C107.455 44.786 107.27 44.2841 107.27 43.6818C107.27 43.1894 107.408 42.7538 107.685 42.375C107.965 41.9962 108.346 41.6989 108.827 41.483C109.312 41.267 109.861 41.1591 110.474 41.1591C111.338 41.1591 112.016 41.3485 112.509 41.7273C113.005 42.1061 113.357 42.6061 113.565 43.2273ZM124.038 41.2727V42.4091H119.516V41.2727H124.038ZM120.834 39.1818H122.175V47.5C122.175 47.8788 122.23 48.1629 122.339 48.3523C122.453 48.5379 122.597 48.6629 122.771 48.7273C122.949 48.7879 123.137 48.8182 123.334 48.8182C123.482 48.8182 123.603 48.8106 123.697 48.7955C123.792 48.7765 123.868 48.7614 123.925 48.75L124.197 49.9545C124.107 49.9886 123.98 50.0227 123.817 50.0568C123.654 50.0947 123.447 50.1136 123.197 50.1136C122.819 50.1136 122.447 50.0322 122.084 49.8693C121.724 49.7064 121.425 49.4583 121.186 49.125C120.951 48.7917 120.834 48.3712 120.834 47.8636V39.1818ZM129.507 50.1818C128.719 50.1818 128.028 49.9943 127.433 49.6193C126.842 49.2443 126.38 48.7197 126.047 48.0455C125.717 47.3712 125.553 46.5833 125.553 45.6818C125.553 44.7727 125.717 43.9792 126.047 43.3011C126.38 42.6231 126.842 42.0966 127.433 41.7216C128.028 41.3466 128.719 41.1591 129.507 41.1591C130.295 41.1591 130.984 41.3466 131.575 41.7216C132.17 42.0966 132.632 42.6231 132.962 43.3011C133.295 43.9792 133.462 44.7727 133.462 45.6818C133.462 46.5833 133.295 47.3712 132.962 48.0455C132.632 48.7197 132.17 49.2443 131.575 49.6193C130.984 49.9943 130.295 50.1818 129.507 50.1818ZM129.507 48.9773C130.106 48.9773 130.598 48.8239 130.984 48.517C131.371 48.2102 131.657 47.8068 131.842 47.3068C132.028 46.8068 132.121 46.2652 132.121 45.6818C132.121 45.0985 132.028 44.5549 131.842 44.0511C131.657 43.5473 131.371 43.1402 130.984 42.8295C130.598 42.5189 130.106 42.3636 129.507 42.3636C128.909 42.3636 128.416 42.5189 128.03 42.8295C127.643 43.1402 127.357 43.5473 127.172 44.0511C126.986 44.5549 126.893 45.0985 126.893 45.6818C126.893 46.2652 126.986 46.8068 127.172 47.3068C127.357 47.8068 127.643 48.2102 128.03 48.517C128.416 48.8239 128.909 48.9773 129.507 48.9773ZM140.19 50V38.3636H141.599V44.1364H141.736L146.963 38.3636H148.804L143.918 43.6136L148.804 50H147.099L143.054 44.5909L141.599 46.2273V50H140.19ZM151.787 44.75V50H150.446V41.2727H151.741V42.6364H151.855C152.06 42.1932 152.37 41.8371 152.787 41.5682C153.204 41.2955 153.741 41.1591 154.401 41.1591C154.991 41.1591 155.509 41.2803 155.952 41.5227C156.395 41.7614 156.74 42.125 156.986 42.6136C157.232 43.0985 157.355 43.7121 157.355 44.4545V50H156.014V44.5455C156.014 43.8598 155.836 43.3258 155.48 42.9432C155.124 42.5568 154.635 42.3636 154.014 42.3636C153.586 42.3636 153.204 42.4564 152.866 42.642C152.533 42.8277 152.27 43.0985 152.077 43.4545C151.884 43.8106 151.787 44.2424 151.787 44.75ZM163.351 50.1818C162.563 50.1818 161.872 49.9943 161.277 49.6193C160.686 49.2443 160.224 48.7197 159.891 48.0455C159.561 47.3712 159.396 46.5833 159.396 45.6818C159.396 44.7727 159.561 43.9792 159.891 43.3011C160.224 42.6231 160.686 42.0966 161.277 41.7216C161.872 41.3466 162.563 41.1591 163.351 41.1591C164.139 41.1591 164.828 41.3466 165.419 41.7216C166.014 42.0966 166.476 42.6231 166.805 43.3011C167.139 43.9792 167.305 44.7727 167.305 45.6818C167.305 46.5833 167.139 47.3712 166.805 48.0455C166.476 48.7197 166.014 49.2443 165.419 49.6193C164.828 49.9943 164.139 50.1818 163.351 50.1818ZM163.351 48.9773C163.949 48.9773 164.442 48.8239 164.828 48.517C165.214 48.2102 165.5 47.8068 165.686 47.3068C165.872 46.8068 165.964 46.2652 165.964 45.6818C165.964 45.0985 165.872 44.5549 165.686 44.0511C165.5 43.5473 165.214 43.1402 164.828 42.8295C164.442 42.5189 163.949 42.3636 163.351 42.3636C162.752 42.3636 162.26 42.5189 161.874 42.8295C161.487 43.1402 161.201 43.5473 161.016 44.0511C160.83 44.5549 160.737 45.0985 160.737 45.6818C160.737 46.2652 160.83 46.8068 161.016 47.3068C161.201 47.8068 161.487 48.2102 161.874 48.517C162.26 48.8239 162.752 48.9773 163.351 48.9773ZM171.033 50L168.374 41.2727H169.783L171.669 47.9545H171.76L173.624 41.2727H175.055L176.896 47.9318H176.987L178.874 41.2727H180.283L177.624 50H176.305L174.396 43.2955H174.26L172.351 50H171.033ZM187.214 50H185.737L190.01 38.3636H191.464L195.737 50H194.26L190.783 40.2045H190.692L187.214 50ZM187.76 45.4545H193.714V46.7045H187.76V45.4545ZM197.55 50V38.3636H198.891V42.6591H199.004C199.103 42.5076 199.239 42.3144 199.413 42.0795C199.591 41.8409 199.845 41.6288 200.175 41.4432C200.508 41.2538 200.959 41.1591 201.527 41.1591C202.262 41.1591 202.91 41.3428 203.47 41.7102C204.031 42.0777 204.468 42.5985 204.783 43.2727C205.097 43.947 205.254 44.7424 205.254 45.6591C205.254 46.5833 205.097 47.3845 204.783 48.0625C204.468 48.7367 204.033 49.2595 203.476 49.6307C202.919 49.9981 202.277 50.1818 201.55 50.1818C200.989 50.1818 200.54 50.089 200.203 49.9034C199.866 49.714 199.607 49.5 199.425 49.2614C199.243 49.0189 199.103 48.8182 199.004 48.6591H198.845V50H197.55ZM198.868 45.6364C198.868 46.2955 198.964 46.8769 199.158 47.3807C199.351 47.8807 199.633 48.2727 200.004 48.5568C200.375 48.8371 200.83 48.9773 201.368 48.9773C201.929 48.9773 202.396 48.8295 202.771 48.5341C203.15 48.2348 203.434 47.8333 203.624 47.3295C203.817 46.822 203.913 46.2576 203.913 45.6364C203.913 45.0227 203.819 44.4697 203.629 43.9773C203.444 43.4811 203.161 43.089 202.783 42.8011C202.408 42.5095 201.936 42.3636 201.368 42.3636C200.822 42.3636 200.364 42.5019 199.993 42.7784C199.622 43.0511 199.341 43.4337 199.152 43.9261C198.963 44.4148 198.868 44.9848 198.868 45.6364ZM210.851 50.1818C210.063 50.1818 209.372 49.9943 208.777 49.6193C208.186 49.2443 207.724 48.7197 207.391 48.0455C207.061 47.3712 206.896 46.5833 206.896 45.6818C206.896 44.7727 207.061 43.9792 207.391 43.3011C207.724 42.6231 208.186 42.0966 208.777 41.7216C209.372 41.3466 210.063 41.1591 210.851 41.1591C211.639 41.1591 212.328 41.3466 212.919 41.7216C213.514 42.0966 213.976 42.6231 214.305 43.3011C214.639 43.9792 214.805 44.7727 214.805 45.6818C214.805 46.5833 214.639 47.3712 214.305 48.0455C213.976 48.7197 213.514 49.2443 212.919 49.6193C212.328 49.9943 211.639 50.1818 210.851 50.1818ZM210.851 48.9773C211.449 48.9773 211.942 48.8239 212.328 48.517C212.714 48.2102 213 47.8068 213.186 47.3068C213.372 46.8068 213.464 46.2652 213.464 45.6818C213.464 45.0985 213.372 44.5549 213.186 44.0511C213 43.5473 212.714 43.1402 212.328 42.8295C211.942 42.5189 211.449 42.3636 210.851 42.3636C210.252 42.3636 209.76 42.5189 209.374 42.8295C208.987 43.1402 208.701 43.5473 208.516 44.0511C208.33 44.5549 208.237 45.0985 208.237 45.6818C208.237 46.2652 208.33 46.8068 208.516 47.3068C208.701 47.8068 208.987 48.2102 209.374 48.517C209.76 48.8239 210.252 48.9773 210.851 48.9773ZM222.352 46.4318V41.2727H223.693V50H222.352V48.5227H222.261C222.057 48.9659 221.739 49.3428 221.307 49.6534C220.875 49.9602 220.33 50.1136 219.67 50.1136C219.125 50.1136 218.64 49.9943 218.216 49.7557C217.792 49.5133 217.458 49.1496 217.216 48.6648C216.973 48.1761 216.852 47.5606 216.852 46.8182V41.2727H218.193V46.7273C218.193 47.3636 218.371 47.8712 218.727 48.25C219.087 48.6288 219.545 48.8182 220.102 48.8182C220.436 48.8182 220.775 48.733 221.119 48.5625C221.468 48.392 221.759 48.1307 221.994 47.7784C222.233 47.4261 222.352 46.9773 222.352 46.4318ZM229.945 41.2727V42.4091H225.422V41.2727H229.945ZM226.74 39.1818H228.081V47.5C228.081 47.8788 228.136 48.1629 228.246 48.3523C228.359 48.5379 228.503 48.6629 228.678 48.7273C228.856 48.7879 229.043 48.8182 229.24 48.8182C229.388 48.8182 229.509 48.8106 229.604 48.7955C229.698 48.7765 229.774 48.7614 229.831 48.75L230.104 49.9545C230.013 49.9886 229.886 50.0227 229.723 50.0568C229.56 50.0947 229.354 50.1136 229.104 50.1136C228.725 50.1136 228.354 50.0322 227.99 49.8693C227.63 49.7064 227.331 49.4583 227.092 49.125C226.857 48.7917 226.74 48.3712 226.74 47.8636V39.1818ZM243.007 41.2727C242.939 40.697 242.662 40.25 242.178 39.9318C241.693 39.6136 241.098 39.4545 240.393 39.4545C239.878 39.4545 239.428 39.5379 239.041 39.7045C238.659 39.8712 238.359 40.1004 238.143 40.392C237.931 40.6837 237.825 41.0152 237.825 41.3864C237.825 41.697 237.899 41.964 238.047 42.1875C238.198 42.4072 238.392 42.5909 238.626 42.7386C238.861 42.8826 239.107 43.0019 239.365 43.0966C239.623 43.1875 239.859 43.2614 240.075 43.3182L241.257 43.6364C241.56 43.7159 241.897 43.8258 242.268 43.9659C242.643 44.1061 243.001 44.2973 243.342 44.5398C243.687 44.7784 243.971 45.0852 244.195 45.4602C244.418 45.8352 244.53 46.2955 244.53 46.8409C244.53 47.4697 244.365 48.0379 244.036 48.5455C243.71 49.053 243.232 49.4564 242.604 49.7557C241.979 50.0549 241.219 50.2045 240.325 50.2045C239.492 50.2045 238.77 50.0701 238.161 49.8011C237.554 49.5322 237.077 49.1572 236.729 48.6761C236.384 48.1951 236.189 47.6364 236.143 47H237.598C237.636 47.4394 237.784 47.803 238.041 48.0909C238.303 48.375 238.632 48.5871 239.03 48.7273C239.431 48.8636 239.863 48.9318 240.325 48.9318C240.863 48.9318 241.346 48.8447 241.774 48.6705C242.202 48.4924 242.541 48.2462 242.791 47.9318C243.041 47.6136 243.166 47.2424 243.166 46.8182C243.166 46.4318 243.058 46.1174 242.842 45.875C242.626 45.6326 242.342 45.4356 241.99 45.2841C241.638 45.1326 241.257 45 240.848 44.8864L239.416 44.4773C238.507 44.2159 237.787 43.8428 237.257 43.358C236.727 42.8731 236.462 42.2386 236.462 41.4545C236.462 40.803 236.638 40.2348 236.99 39.75C237.346 39.2614 237.823 38.8826 238.422 38.6136C239.024 38.3409 239.696 38.2045 240.439 38.2045C241.189 38.2045 241.856 38.339 242.439 38.608C243.022 38.8731 243.484 39.2367 243.825 39.6989C244.17 40.161 244.352 40.6856 244.371 41.2727H243.007ZM249.233 50.2045C248.68 50.2045 248.178 50.1004 247.727 49.892C247.277 49.6799 246.919 49.375 246.653 48.9773C246.388 48.5758 246.256 48.0909 246.256 47.5227C246.256 47.0227 246.354 46.6174 246.551 46.3068C246.748 45.9924 247.011 45.7462 247.341 45.5682C247.67 45.3902 248.034 45.2576 248.432 45.1705C248.833 45.0795 249.237 45.0076 249.642 44.9545C250.172 44.8864 250.602 44.8352 250.932 44.8011C251.265 44.7633 251.508 44.7008 251.659 44.6136C251.814 44.5265 251.892 44.375 251.892 44.1591V44.1136C251.892 43.553 251.739 43.1174 251.432 42.8068C251.129 42.4962 250.669 42.3409 250.051 42.3409C249.411 42.3409 248.909 42.4811 248.545 42.7614C248.182 43.0417 247.926 43.3409 247.778 43.6591L246.506 43.2045C246.733 42.6742 247.036 42.2614 247.415 41.9659C247.797 41.6667 248.214 41.4583 248.665 41.3409C249.119 41.2197 249.566 41.1591 250.006 41.1591C250.286 41.1591 250.608 41.1932 250.972 41.2614C251.339 41.3258 251.693 41.4602 252.034 41.6648C252.379 41.8693 252.665 42.178 252.892 42.5909C253.119 43.0038 253.233 43.5568 253.233 44.25V50H251.892V48.8182H251.824C251.733 49.0076 251.581 49.2102 251.369 49.4261C251.157 49.642 250.875 49.8258 250.523 49.9773C250.17 50.1288 249.741 50.2045 249.233 50.2045ZM249.438 49C249.968 49 250.415 48.8958 250.778 48.6875C251.146 48.4792 251.422 48.2102 251.608 47.8807C251.797 47.5511 251.892 47.2045 251.892 46.8409V45.6136C251.835 45.6818 251.71 45.7443 251.517 45.8011C251.328 45.8542 251.108 45.9015 250.858 45.9432C250.612 45.9811 250.371 46.0152 250.136 46.0455C249.905 46.072 249.718 46.0947 249.574 46.1136C249.225 46.1591 248.9 46.233 248.597 46.3352C248.297 46.4337 248.055 46.5833 247.869 46.7841C247.688 46.9811 247.597 47.25 247.597 47.5909C247.597 48.0568 247.769 48.4091 248.114 48.6477C248.462 48.8826 248.903 49 249.438 49ZM257.021 38.3636V50H255.68V38.3636H257.021ZM266.614 41.2727L263.386 50H262.023L258.795 41.2727H260.25L262.659 48.2273H262.75L265.159 41.2727H266.614ZM270.686 50.2045C270.133 50.2045 269.631 50.1004 269.18 49.892C268.73 49.6799 268.372 49.375 268.107 48.9773C267.841 48.5758 267.709 48.0909 267.709 47.5227C267.709 47.0227 267.807 46.6174 268.004 46.3068C268.201 45.9924 268.464 45.7462 268.794 45.5682C269.124 45.3902 269.487 45.2576 269.885 45.1705C270.286 45.0795 270.69 45.0076 271.095 44.9545C271.625 44.8864 272.055 44.8352 272.385 44.8011C272.718 44.7633 272.961 44.7008 273.112 44.6136C273.268 44.5265 273.345 44.375 273.345 44.1591V44.1136C273.345 43.553 273.192 43.1174 272.885 42.8068C272.582 42.4962 272.122 42.3409 271.504 42.3409C270.864 42.3409 270.362 42.4811 269.999 42.7614C269.635 43.0417 269.379 43.3409 269.232 43.6591L267.959 43.2045C268.186 42.6742 268.489 42.2614 268.868 41.9659C269.25 41.6667 269.667 41.4583 270.118 41.3409C270.572 41.2197 271.019 41.1591 271.459 41.1591C271.739 41.1591 272.061 41.1932 272.425 41.2614C272.792 41.3258 273.146 41.4602 273.487 41.6648C273.832 41.8693 274.118 42.178 274.345 42.5909C274.572 43.0038 274.686 43.5568 274.686 44.25V50H273.345V48.8182H273.277C273.186 49.0076 273.035 49.2102 272.822 49.4261C272.61 49.642 272.328 49.8258 271.976 49.9773C271.624 50.1288 271.194 50.2045 270.686 50.2045ZM270.891 49C271.421 49 271.868 48.8958 272.232 48.6875C272.599 48.4792 272.875 48.2102 273.061 47.8807C273.25 47.5511 273.345 47.2045 273.345 46.8409V45.6136C273.288 45.6818 273.163 45.7443 272.97 45.8011C272.781 45.8542 272.561 45.9015 272.311 45.9432C272.065 45.9811 271.824 46.0152 271.589 46.0455C271.358 46.072 271.171 46.0947 271.027 46.1136C270.679 46.1591 270.353 46.233 270.05 46.3352C269.75 46.4337 269.508 46.5833 269.322 46.7841C269.141 46.9811 269.05 47.25 269.05 47.5909C269.05 48.0568 269.222 48.4091 269.567 48.6477C269.915 48.8826 270.357 49 270.891 49ZM280.429 50.1818C279.702 50.1818 279.06 49.9981 278.503 49.6307C277.946 49.2595 277.51 48.7367 277.196 48.0625C276.882 47.3845 276.724 46.5833 276.724 45.6591C276.724 44.7424 276.882 43.947 277.196 43.2727C277.51 42.5985 277.948 42.0777 278.509 41.7102C279.069 41.3428 279.717 41.1591 280.452 41.1591C281.02 41.1591 281.469 41.2538 281.798 41.4432C282.132 41.6288 282.385 41.8409 282.56 42.0795C282.738 42.3144 282.876 42.5076 282.974 42.6591H283.088V38.3636H284.429V50H283.134V48.6591H282.974C282.876 48.8182 282.736 49.0189 282.554 49.2614C282.372 49.5 282.113 49.714 281.776 49.9034C281.438 50.089 280.99 50.1818 280.429 50.1818ZM280.611 48.9773C281.149 48.9773 281.603 48.8371 281.974 48.5568C282.346 48.2727 282.628 47.8807 282.821 47.3807C283.014 46.8769 283.111 46.2955 283.111 45.6364C283.111 44.9848 283.016 44.4148 282.827 43.9261C282.637 43.4337 282.357 43.0511 281.986 42.7784C281.615 42.5019 281.156 42.3636 280.611 42.3636C280.043 42.3636 279.569 42.5095 279.19 42.8011C278.815 43.089 278.533 43.4811 278.344 43.9773C278.158 44.4697 278.065 45.0227 278.065 45.6364C278.065 46.2576 278.16 46.822 278.349 47.3295C278.543 47.8333 278.827 48.2348 279.202 48.5341C279.58 48.8295 280.05 48.9773 280.611 48.9773ZM290.616 50.1818C289.829 50.1818 289.137 49.9943 288.543 49.6193C287.952 49.2443 287.49 48.7197 287.156 48.0455C286.827 47.3712 286.662 46.5833 286.662 45.6818C286.662 44.7727 286.827 43.9792 287.156 43.3011C287.49 42.6231 287.952 42.0966 288.543 41.7216C289.137 41.3466 289.829 41.1591 290.616 41.1591C291.404 41.1591 292.094 41.3466 292.685 41.7216C293.279 42.0966 293.741 42.6231 294.071 43.3011C294.404 43.9792 294.571 44.7727 294.571 45.6818C294.571 46.5833 294.404 47.3712 294.071 48.0455C293.741 48.7197 293.279 49.2443 292.685 49.6193C292.094 49.9943 291.404 50.1818 290.616 50.1818ZM290.616 48.9773C291.215 48.9773 291.707 48.8239 292.094 48.517C292.48 48.2102 292.766 47.8068 292.952 47.3068C293.137 46.8068 293.23 46.2652 293.23 45.6818C293.23 45.0985 293.137 44.5549 292.952 44.0511C292.766 43.5473 292.48 43.1402 292.094 42.8295C291.707 42.5189 291.215 42.3636 290.616 42.3636C290.018 42.3636 289.526 42.5189 289.139 42.8295C288.753 43.1402 288.467 43.5473 288.281 44.0511C288.096 44.5549 288.003 45.0985 288.003 45.6818C288.003 46.2652 288.096 46.8068 288.281 47.3068C288.467 47.8068 288.753 48.2102 289.139 48.517C289.526 48.8239 290.018 48.9773 290.616 48.9773ZM296.618 50V41.2727H297.913V42.5909H298.004C298.163 42.1591 298.451 41.8087 298.868 41.5398C299.285 41.2708 299.754 41.1364 300.277 41.1364C300.375 41.1364 300.499 41.1383 300.646 41.142C300.794 41.1458 300.906 41.1515 300.982 41.1591V42.5227C300.936 42.5114 300.832 42.4943 300.669 42.4716C300.51 42.4451 300.341 42.4318 300.163 42.4318C299.739 42.4318 299.36 42.5208 299.027 42.6989C298.697 42.8731 298.436 43.1155 298.243 43.4261C298.054 43.733 297.959 44.0833 297.959 44.4773V50H296.618ZM310.844 50H307.253V38.3636H311.003C312.132 38.3636 313.098 38.5966 313.901 39.0625C314.704 39.5246 315.319 40.1894 315.747 41.0568C316.175 41.9205 316.389 42.9545 316.389 44.1591C316.389 45.3712 316.173 46.4148 315.741 47.2898C315.31 48.161 314.681 48.8314 313.855 49.3011C313.029 49.767 312.026 50 310.844 50ZM308.662 48.75H310.753C311.715 48.75 312.512 48.5644 313.145 48.1932C313.777 47.822 314.249 47.2936 314.56 46.608C314.87 45.9223 315.026 45.1061 315.026 44.1591C315.026 43.2197 314.872 42.411 314.565 41.733C314.259 41.0511 313.8 40.5284 313.19 40.1648C312.58 39.7973 311.821 39.6136 310.912 39.6136H308.662V48.75ZM321.139 50.2045C320.586 50.2045 320.084 50.1004 319.634 49.892C319.183 49.6799 318.825 49.375 318.56 48.9773C318.295 48.5758 318.162 48.0909 318.162 47.5227C318.162 47.0227 318.26 46.6174 318.457 46.3068C318.654 45.9924 318.918 45.7462 319.247 45.5682C319.577 45.3902 319.94 45.2576 320.338 45.1705C320.74 45.0795 321.143 45.0076 321.548 44.9545C322.079 44.8864 322.509 44.8352 322.838 44.8011C323.171 44.7633 323.414 44.7008 323.565 44.6136C323.721 44.5265 323.798 44.375 323.798 44.1591V44.1136C323.798 43.553 323.645 43.1174 323.338 42.8068C323.035 42.4962 322.575 42.3409 321.957 42.3409C321.317 42.3409 320.815 42.4811 320.452 42.7614C320.088 43.0417 319.832 43.3409 319.685 43.6591L318.412 43.2045C318.639 42.6742 318.942 42.2614 319.321 41.9659C319.704 41.6667 320.12 41.4583 320.571 41.3409C321.026 41.2197 321.473 41.1591 321.912 41.1591C322.192 41.1591 322.514 41.1932 322.878 41.2614C323.245 41.3258 323.599 41.4602 323.94 41.6648C324.285 41.8693 324.571 42.178 324.798 42.5909C325.026 43.0038 325.139 43.5568 325.139 44.25V50H323.798V48.8182H323.73C323.639 49.0076 323.488 49.2102 323.276 49.4261C323.063 49.642 322.781 49.8258 322.429 49.9773C322.077 50.1288 321.647 50.2045 321.139 50.2045ZM321.344 49C321.874 49 322.321 48.8958 322.685 48.6875C323.052 48.4792 323.329 48.2102 323.514 47.8807C323.704 47.5511 323.798 47.2045 323.798 46.8409V45.6136C323.741 45.6818 323.616 45.7443 323.423 45.8011C323.234 45.8542 323.014 45.9015 322.764 45.9432C322.518 45.9811 322.277 46.0152 322.043 46.0455C321.812 46.072 321.624 46.0947 321.48 46.1136C321.132 46.1591 320.806 46.233 320.503 46.3352C320.204 46.4337 319.961 46.5833 319.776 46.7841C319.594 46.9811 319.503 47.25 319.503 47.5909C319.503 48.0568 319.675 48.4091 320.02 48.6477C320.368 48.8826 320.81 49 321.344 49ZM328.928 38.3636V50H327.587V38.3636H328.928ZM331.384 50V41.2727H332.724V50H331.384ZM331.452 40.0909L332.838 37.4545H334.406L332.634 40.0909H331.452Z" fill="#8D8E97"/>
</svg>
