<svg width="180" height="24" viewBox="0 0 180 24" fill="none" xmlns="http://www.w3.org/2000/svg">
<path d="M6.26705 4.36364V16H4.15909V6.41477H4.09091L1.36932 8.15341V6.22159L4.26136 4.36364H6.26705Z" fill="#313037"/>
<path d="M41.5341 16V14.4773L45.5739 10.517C45.9602 10.1269 46.2822 9.7803 46.5398 9.47727C46.7973 9.17424 46.9905 8.88068 47.1193 8.59659C47.2481 8.3125 47.3125 8.00947 47.3125 7.6875C47.3125 7.32008 47.2292 7.00568 47.0625 6.74432C46.8958 6.47917 46.6667 6.27462 46.375 6.13068C46.0833 5.98674 45.7519 5.91477 45.3807 5.91477C44.9981 5.91477 44.6629 5.99432 44.375 6.15341C44.0871 6.30871 43.8636 6.5303 43.7045 6.81818C43.5492 7.10606 43.4716 7.44886 43.4716 7.84659H41.4659C41.4659 7.10795 41.6345 6.46591 41.9716 5.92045C42.3087 5.375 42.7727 4.95265 43.3636 4.65341C43.9583 4.35417 44.6402 4.20455 45.4091 4.20455C46.1894 4.20455 46.875 4.35038 47.4659 4.64205C48.0568 4.93371 48.5152 5.33333 48.8409 5.84091C49.1705 6.34848 49.3352 6.92803 49.3352 7.57955C49.3352 8.01515 49.2519 8.44318 49.0852 8.86364C48.9186 9.28409 48.625 9.75 48.2045 10.2614C47.7879 10.7727 47.2027 11.392 46.4489 12.1193L44.4432 14.1591V14.2386H49.5114V16H41.5341Z" fill="#2231AA"/>
<path d="M87.7102 16.1591C86.892 16.1591 86.1648 16.0189 85.5284 15.7386C84.8958 15.4583 84.3958 15.0682 84.0284 14.5682C83.661 14.0682 83.4659 13.4905 83.4432 12.8352H85.5795C85.5985 13.1496 85.7027 13.4242 85.892 13.6591C86.0814 13.8902 86.3333 14.0701 86.6477 14.1989C86.9621 14.3277 87.3144 14.392 87.7045 14.392C88.1212 14.392 88.4905 14.3201 88.8125 14.1761C89.1345 14.0284 89.3864 13.8239 89.5682 13.5625C89.75 13.3011 89.839 13 89.8352 12.6591C89.839 12.3068 89.7481 11.9962 89.5625 11.7273C89.3769 11.4583 89.108 11.2481 88.7557 11.0966C88.4072 10.9451 87.9867 10.8693 87.4943 10.8693H86.4659V9.24432H87.4943C87.8996 9.24432 88.2538 9.17424 88.5568 9.03409C88.8636 8.89394 89.1042 8.69697 89.2784 8.44318C89.4527 8.18561 89.5379 7.88826 89.5341 7.55114C89.5379 7.22159 89.464 6.93561 89.3125 6.69318C89.1648 6.44697 88.9545 6.25568 88.6818 6.11932C88.4129 5.98295 88.0966 5.91477 87.733 5.91477C87.3769 5.91477 87.0473 5.97917 86.7443 6.10795C86.4413 6.23674 86.197 6.42045 86.0114 6.65909C85.8258 6.89394 85.7273 7.17424 85.7159 7.5H83.6875C83.7027 6.84848 83.8902 6.27652 84.25 5.78409C84.6136 5.28788 85.0985 4.90151 85.7045 4.625C86.3106 4.3447 86.9905 4.20455 87.7443 4.20455C88.5208 4.20455 89.1951 4.35038 89.767 4.64205C90.3428 4.92992 90.7879 5.31818 91.1023 5.80682C91.4167 6.29545 91.5739 6.83523 91.5739 7.42614C91.5777 8.08144 91.3845 8.63068 90.9943 9.07386C90.608 9.51705 90.1004 9.80682 89.4716 9.94318V10.0341C90.2898 10.1477 90.9167 10.4508 91.3523 10.9432C91.7917 11.4318 92.0095 12.0398 92.0057 12.767C92.0057 13.4186 91.8201 14.0019 91.4489 14.517C91.0814 15.0284 90.5739 15.4299 89.9261 15.7216C89.2822 16.0133 88.5436 16.1591 87.7102 16.1591Z" fill="#313037"/>
<path d="M127.571 13H125.5V11H127.571V13Z" fill="#313037"/>
<path d="M132.107 13H130.036V11H132.107V13Z" fill="#313037"/>
<path d="M136.5 13H134.429V11H136.5V13Z" fill="#313037"/>
<path d="M173.795 16.1591C173.239 16.1553 172.695 16.0587 172.165 15.8693C171.634 15.6761 171.157 15.3636 170.733 14.9318C170.309 14.4962 169.972 13.9186 169.722 13.1989C169.472 12.4754 169.348 11.5795 169.352 10.5114C169.352 9.51515 169.458 8.62689 169.67 7.84659C169.883 7.06629 170.188 6.4072 170.585 5.86932C170.983 5.32765 171.462 4.91477 172.023 4.63068C172.587 4.34659 173.218 4.20455 173.915 4.20455C174.646 4.20455 175.294 4.34848 175.858 4.63636C176.426 4.92424 176.884 5.31818 177.233 5.81818C177.581 6.31439 177.797 6.875 177.881 7.5H175.807C175.701 7.05303 175.483 6.69697 175.153 6.43182C174.828 6.16288 174.415 6.02841 173.915 6.02841C173.108 6.02841 172.487 6.37879 172.051 7.07955C171.619 7.7803 171.402 8.74242 171.398 9.96591H171.477C171.663 9.63258 171.903 9.34659 172.199 9.10795C172.494 8.86932 172.828 8.68561 173.199 8.55682C173.574 8.42424 173.97 8.35795 174.386 8.35795C175.068 8.35795 175.68 8.52083 176.222 8.84659C176.767 9.17235 177.199 9.62121 177.517 10.1932C177.835 10.7614 177.992 11.4129 177.989 12.1477C177.992 12.9129 177.818 13.6004 177.466 14.2102C177.114 14.8163 176.623 15.2936 175.994 15.642C175.366 15.9905 174.633 16.1629 173.795 16.1591ZM173.784 14.4545C174.197 14.4545 174.566 14.3542 174.892 14.1534C175.218 13.9527 175.475 13.6818 175.665 13.3409C175.854 13 175.947 12.6174 175.943 12.1932C175.947 11.7765 175.856 11.3996 175.67 11.0625C175.489 10.7254 175.237 10.4583 174.915 10.2614C174.593 10.0644 174.225 9.96591 173.812 9.96591C173.506 9.96591 173.22 10.0246 172.955 10.142C172.689 10.2595 172.458 10.4223 172.261 10.6307C172.064 10.8352 171.909 11.0739 171.795 11.3466C171.686 11.6155 171.629 11.9034 171.625 12.2102C171.629 12.6155 171.723 12.9886 171.909 13.3295C172.095 13.6705 172.35 13.9432 172.676 14.1477C173.002 14.3523 173.371 14.4545 173.784 14.4545Z" fill="#313037"/>
</svg>
